<svg width="84" height="30" viewBox="0 0 84 30" fill="none" xmlns="http://www.w3.org/2000/svg">
<mask id="path-1-outside-1_93_4" maskUnits="userSpaceOnUse" x="23.082" y="4" width="55" height="22" fill="black">
<rect fill="white" x="23.082" y="4" width="55" height="22"/>
<path d="M27.546 14.132C26.874 14.132 26.298 14.016 25.818 13.784C25.338 13.552 24.942 13.236 24.63 12.836C24.326 12.428 24.102 11.964 23.958 11.444C23.814 10.916 23.742 10.364 23.742 9.788C23.742 9.212 23.814 8.664 23.958 8.144C24.102 7.616 24.326 7.152 24.63 6.752C24.942 6.344 25.338 6.024 25.818 5.792C26.298 5.56 26.874 5.444 27.546 5.444C28.218 5.444 28.794 5.56 29.274 5.792C29.754 6.024 30.146 6.344 30.45 6.752C30.762 7.152 30.99 7.616 31.134 8.144C31.278 8.664 31.35 9.212 31.35 9.788C31.35 10.364 31.278 10.916 31.134 11.444C30.99 11.964 30.762 12.428 30.45 12.836C30.146 13.236 29.754 13.552 29.274 13.784C28.794 14.016 28.218 14.132 27.546 14.132ZM27.546 13.172C28.178 13.172 28.69 13.02 29.082 12.716C29.482 12.412 29.774 12.004 29.958 11.492C30.15 10.972 30.246 10.404 30.246 9.788C30.246 9.164 30.15 8.596 29.958 8.084C29.774 7.572 29.482 7.164 29.082 6.86C28.69 6.556 28.178 6.404 27.546 6.404C26.962 6.404 26.466 6.556 26.058 6.86C25.658 7.164 25.354 7.572 25.146 8.084C24.946 8.596 24.846 9.164 24.846 9.788C24.846 10.404 24.946 10.972 25.146 11.492C25.354 12.004 25.658 12.412 26.058 12.716C26.466 13.02 26.962 13.172 27.546 13.172ZM32.6357 16.76V8H33.6077V9.176C33.6957 8.952 33.8237 8.74 33.9917 8.54C34.1597 8.34 34.3717 8.176 34.6277 8.048C34.8837 7.92 35.1877 7.856 35.5397 7.856C36.0677 7.856 36.5357 7.98 36.9437 8.228C37.3517 8.468 37.6717 8.82 37.9037 9.284C38.1357 9.748 38.2517 10.32 38.2517 11C38.2517 11.656 38.1397 12.22 37.9157 12.692C37.6917 13.156 37.3797 13.516 36.9797 13.772C36.5877 14.02 36.1277 14.144 35.5997 14.144C35.3277 14.144 35.0557 14.096 34.7837 14C34.5117 13.896 34.2757 13.748 34.0757 13.556C33.8757 13.356 33.7317 13.12 33.6437 12.848V16.76H32.6357ZM35.4557 13.232C35.8637 13.232 36.1997 13.132 36.4637 12.932C36.7277 12.732 36.9237 12.46 37.0517 12.116C37.1797 11.772 37.2437 11.392 37.2437 10.976C37.2437 10.56 37.1797 10.184 37.0517 9.848C36.9237 9.512 36.7277 9.248 36.4637 9.056C36.2077 8.856 35.8837 8.756 35.4917 8.756C34.8997 8.756 34.4437 8.964 34.1237 9.38C33.8117 9.796 33.6557 10.336 33.6557 11C33.6557 11.408 33.7237 11.78 33.8597 12.116C34.0037 12.452 34.2077 12.72 34.4717 12.92C34.7437 13.12 35.0717 13.224 35.4557 13.232ZM41.9148 14.156C41.4108 14.156 40.9428 14.032 40.5108 13.784C40.0788 13.528 39.7308 13.164 39.4668 12.692C39.2028 12.22 39.0708 11.664 39.0708 11.024C39.0708 10.368 39.2028 9.804 39.4668 9.332C39.7308 8.86 40.0788 8.496 40.5108 8.24C40.9428 7.984 41.4108 7.856 41.9148 7.856C42.4268 7.856 42.8868 7.964 43.2948 8.18C43.7108 8.388 44.0388 8.716 44.2788 9.164C44.5268 9.604 44.6508 10.172 44.6508 10.868V11.24H40.0668C40.0988 11.816 40.2668 12.296 40.5708 12.68C40.8748 13.056 41.3148 13.244 41.8908 13.244C42.2508 13.244 42.5788 13.16 42.8748 12.992C43.1708 12.824 43.4028 12.588 43.5708 12.284L44.4588 12.644C43.9628 13.652 43.1148 14.156 41.9148 14.156ZM41.8908 8.768C41.4028 8.768 41.0108 8.92 40.7148 9.224C40.4268 9.52 40.2348 9.896 40.1388 10.352H43.6428C43.6428 10.128 43.5748 9.896 43.4388 9.656C43.3108 9.408 43.1188 9.2 42.8628 9.032C42.6068 8.856 42.2828 8.768 41.8908 8.768ZM45.8788 14V8H46.8868V9.128C46.9268 8.984 47.0188 8.812 47.1628 8.612C47.3068 8.412 47.5188 8.236 47.7988 8.084C48.0788 7.932 48.4428 7.856 48.8908 7.856C49.4748 7.856 49.9548 8.044 50.3308 8.42C50.7148 8.796 50.9068 9.344 50.9068 10.064V14H49.8988V10.208C49.8988 9.688 49.7748 9.32 49.5268 9.104C49.2788 8.88 48.9548 8.768 48.5548 8.768C48.0028 8.768 47.5868 8.956 47.3068 9.332C47.0268 9.708 46.8868 10.184 46.8868 10.76V14H45.8788ZM33.0079 25.132C32.3359 25.132 31.7599 25.016 31.2799 24.784C30.7999 24.552 30.4039 24.236 30.0919 23.836C29.7879 23.428 29.5639 22.964 29.4199 22.444C29.2759 21.916 29.2039 21.364 29.2039 20.788C29.2039 20.212 29.2759 19.664 29.4199 19.144C29.5639 18.616 29.7879 18.152 30.0919 17.752C30.4039 17.344 30.7999 17.024 31.2799 16.792C31.7599 16.56 32.3359 16.444 33.0079 16.444C33.6799 16.444 34.2559 16.56 34.7359 16.792C35.2159 17.024 35.6079 17.344 35.9119 17.752C36.2239 18.152 36.4519 18.616 36.5959 19.144C36.7399 19.664 36.8119 20.212 36.8119 20.788C36.8119 21.364 36.7399 21.916 36.5959 22.444C36.4519 22.964 36.2239 23.428 35.9119 23.836C35.6079 24.236 35.2159 24.552 34.7359 24.784C34.2559 25.016 33.6799 25.132 33.0079 25.132ZM33.0079 24.172C33.6399 24.172 34.1519 24.02 34.5439 23.716C34.9439 23.412 35.2359 23.004 35.4199 22.492C35.6119 21.972 35.7079 21.404 35.7079 20.788C35.7079 20.164 35.6119 19.596 35.4199 19.084C35.2359 18.572 34.9439 18.164 34.5439 17.86C34.1519 17.556 33.6399 17.404 33.0079 17.404C32.4239 17.404 31.9279 17.556 31.5199 17.86C31.1199 18.164 30.8159 18.572 30.6079 19.084C30.4079 19.596 30.3079 20.164 30.3079 20.788C30.3079 21.404 30.4079 21.972 30.6079 22.492C30.8159 23.004 31.1199 23.412 31.5199 23.716C31.9279 24.02 32.4239 24.172 33.0079 24.172ZM40.0416 25.144C39.4576 25.144 38.9736 24.956 38.5896 24.58C38.2136 24.204 38.0256 23.656 38.0256 22.936V19H39.0336V22.792C39.0336 23.312 39.1576 23.684 39.4056 23.908C39.6536 24.124 39.9776 24.232 40.3776 24.232C40.9296 24.232 41.3456 24.044 41.6256 23.668C41.9056 23.292 42.0456 22.816 42.0456 22.24V19H43.0536V25H42.0456V23.872C42.0136 24.008 41.9216 24.18 41.7696 24.388C41.6256 24.588 41.4136 24.764 41.1336 24.916C40.8536 25.068 40.4896 25.144 40.0416 25.144ZM47.1658 25.156C46.6618 25.156 46.1938 25.032 45.7618 24.784C45.3298 24.528 44.9817 24.164 44.7177 23.692C44.4537 23.22 44.3217 22.664 44.3217 22.024C44.3217 21.368 44.4537 20.804 44.7177 20.332C44.9817 19.86 45.3298 19.496 45.7618 19.24C46.1938 18.984 46.6618 18.856 47.1658 18.856C47.6778 18.856 48.1378 18.964 48.5458 19.18C48.9618 19.388 49.2898 19.716 49.5298 20.164C49.7778 20.604 49.9018 21.172 49.9018 21.868V22.24H45.3178C45.3497 22.816 45.5177 23.296 45.8217 23.68C46.1258 24.056 46.5658 24.244 47.1417 24.244C47.5018 24.244 47.8298 24.16 48.1258 23.992C48.4218 23.824 48.6538 23.588 48.8218 23.284L49.7098 23.644C49.2138 24.652 48.3658 25.156 47.1658 25.156ZM47.1417 19.768C46.6538 19.768 46.2618 19.92 45.9658 20.224C45.6777 20.52 45.4857 20.896 45.3898 21.352H48.8938C48.8938 21.128 48.8258 20.896 48.6898 20.656C48.5618 20.408 48.3698 20.2 48.1137 20.032C47.8578 19.856 47.5338 19.768 47.1417 19.768ZM51.1298 25V19H52.1378V20.128C52.1778 19.984 52.2698 19.812 52.4138 19.612C52.5578 19.412 52.7698 19.236 53.0498 19.084C53.3298 18.932 53.6938 18.856 54.1418 18.856C54.7258 18.856 55.2058 19.044 55.5818 19.42C55.9658 19.796 56.1578 20.344 56.1578 21.064V25H55.1498V21.208C55.1498 20.688 55.0258 20.32 54.7778 20.104C54.5298 19.88 54.2058 19.768 53.8058 19.768C53.2538 19.768 52.8378 19.956 52.5578 20.332C52.2778 20.708 52.1378 21.184 52.1378 21.76V25H51.1298ZM60.0659 25.144C59.5459 25.144 59.0779 25.024 58.6619 24.784C58.2539 24.536 57.9339 24.18 57.7019 23.716C57.4699 23.244 57.3539 22.672 57.3539 22C57.3539 21.344 57.4659 20.784 57.6899 20.32C57.9139 19.848 58.2259 19.488 58.6259 19.24C59.0259 18.984 59.4859 18.856 60.0059 18.856C60.2859 18.856 60.5579 18.908 60.8219 19.012C61.0939 19.108 61.3299 19.252 61.5299 19.444C61.7379 19.636 61.8819 19.872 61.9619 20.152V16.456H62.9699V23.488C62.9699 23.728 63.0219 23.9 63.1259 24.004C63.2299 24.1 63.4299 24.116 63.7259 24.052V24.868C63.6459 24.916 63.5579 24.952 63.4619 24.976C63.3739 25 63.2539 25.012 63.1019 25.012C62.7899 25.012 62.5299 24.92 62.3219 24.736C62.1139 24.552 62.0099 24.248 62.0099 23.824C61.9219 24.04 61.7939 24.252 61.6259 24.46C61.4579 24.66 61.2419 24.824 60.9779 24.952C60.7219 25.08 60.4179 25.144 60.0659 25.144ZM60.1139 24.244C60.7059 24.244 61.1579 24.036 61.4699 23.62C61.7899 23.196 61.9499 22.656 61.9499 22C61.9499 21.592 61.8779 21.22 61.7339 20.884C61.5979 20.54 61.3939 20.268 61.1219 20.068C60.8579 19.868 60.5339 19.768 60.1499 19.768C59.7499 19.768 59.4139 19.872 59.1419 20.08C58.8779 20.28 58.6819 20.552 58.5539 20.896C58.4259 21.232 58.3619 21.608 58.3619 22.024C58.3619 22.44 58.4259 22.816 58.5539 23.152C58.6819 23.488 58.8739 23.756 59.1299 23.956C59.3939 24.148 59.7219 24.244 60.1139 24.244ZM67.0494 25.144C66.5294 25.144 66.0694 25.02 65.6694 24.772C65.2694 24.516 64.9574 24.156 64.7334 23.692C64.5094 23.22 64.3974 22.656 64.3974 22C64.3974 21.32 64.5134 20.748 64.7454 20.284C64.9774 19.82 65.2974 19.468 65.7054 19.228C66.1214 18.98 66.5894 18.856 67.1094 18.856C67.4614 18.856 67.7654 18.92 68.0214 19.048C68.2774 19.176 68.4894 19.34 68.6574 19.54C68.8334 19.74 68.9614 19.952 69.0414 20.176V19H70.0014V25H69.0054V23.848C68.9254 24.12 68.7814 24.356 68.5734 24.556C68.3734 24.748 68.1374 24.896 67.8654 25C67.6014 25.096 67.3294 25.144 67.0494 25.144ZM67.1934 24.232C67.5774 24.232 67.9014 24.132 68.1654 23.932C68.4374 23.724 68.6414 23.452 68.7774 23.116C68.9214 22.78 68.9934 22.408 68.9934 22C68.9934 21.336 68.8334 20.796 68.5134 20.38C68.2014 19.964 67.7494 19.756 67.1574 19.756C66.7654 19.756 66.4374 19.856 66.1734 20.056C65.9174 20.248 65.7254 20.512 65.5974 20.848C65.4694 21.184 65.4054 21.56 65.4054 21.976C65.4054 22.392 65.4694 22.772 65.5974 23.116C65.7254 23.452 65.9214 23.724 66.1854 23.932C66.4574 24.132 66.7934 24.232 67.1934 24.232ZM71.6624 25V19H72.6704V20.128C72.7104 19.984 72.8024 19.812 72.9464 19.612C73.0904 19.412 73.3024 19.236 73.5824 19.084C73.8624 18.932 74.2264 18.856 74.6744 18.856C75.2584 18.856 75.7384 19.044 76.1144 19.42C76.4984 19.796 76.6904 20.344 76.6904 21.064V25H75.6824V21.208C75.6824 20.688 75.5584 20.32 75.3104 20.104C75.0624 19.88 74.7384 19.768 74.3384 19.768C73.7864 19.768 73.3704 19.956 73.0904 20.332C72.8104 20.708 72.6704 21.184 72.6704 21.76V25H71.6624Z"/>
</mask>
<path d="M27.546 14.132C26.874 14.132 26.298 14.016 25.818 13.784C25.338 13.552 24.942 13.236 24.63 12.836C24.326 12.428 24.102 11.964 23.958 11.444C23.814 10.916 23.742 10.364 23.742 9.788C23.742 9.212 23.814 8.664 23.958 8.144C24.102 7.616 24.326 7.152 24.63 6.752C24.942 6.344 25.338 6.024 25.818 5.792C26.298 5.56 26.874 5.444 27.546 5.444C28.218 5.444 28.794 5.56 29.274 5.792C29.754 6.024 30.146 6.344 30.45 6.752C30.762 7.152 30.99 7.616 31.134 8.144C31.278 8.664 31.35 9.212 31.35 9.788C31.35 10.364 31.278 10.916 31.134 11.444C30.99 11.964 30.762 12.428 30.45 12.836C30.146 13.236 29.754 13.552 29.274 13.784C28.794 14.016 28.218 14.132 27.546 14.132ZM27.546 13.172C28.178 13.172 28.69 13.02 29.082 12.716C29.482 12.412 29.774 12.004 29.958 11.492C30.15 10.972 30.246 10.404 30.246 9.788C30.246 9.164 30.15 8.596 29.958 8.084C29.774 7.572 29.482 7.164 29.082 6.86C28.69 6.556 28.178 6.404 27.546 6.404C26.962 6.404 26.466 6.556 26.058 6.86C25.658 7.164 25.354 7.572 25.146 8.084C24.946 8.596 24.846 9.164 24.846 9.788C24.846 10.404 24.946 10.972 25.146 11.492C25.354 12.004 25.658 12.412 26.058 12.716C26.466 13.02 26.962 13.172 27.546 13.172ZM32.6357 16.76V8H33.6077V9.176C33.6957 8.952 33.8237 8.74 33.9917 8.54C34.1597 8.34 34.3717 8.176 34.6277 8.048C34.8837 7.92 35.1877 7.856 35.5397 7.856C36.0677 7.856 36.5357 7.98 36.9437 8.228C37.3517 8.468 37.6717 8.82 37.9037 9.284C38.1357 9.748 38.2517 10.32 38.2517 11C38.2517 11.656 38.1397 12.22 37.9157 12.692C37.6917 13.156 37.3797 13.516 36.9797 13.772C36.5877 14.02 36.1277 14.144 35.5997 14.144C35.3277 14.144 35.0557 14.096 34.7837 14C34.5117 13.896 34.2757 13.748 34.0757 13.556C33.8757 13.356 33.7317 13.12 33.6437 12.848V16.76H32.6357ZM35.4557 13.232C35.8637 13.232 36.1997 13.132 36.4637 12.932C36.7277 12.732 36.9237 12.46 37.0517 12.116C37.1797 11.772 37.2437 11.392 37.2437 10.976C37.2437 10.56 37.1797 10.184 37.0517 9.848C36.9237 9.512 36.7277 9.248 36.4637 9.056C36.2077 8.856 35.8837 8.756 35.4917 8.756C34.8997 8.756 34.4437 8.964 34.1237 9.38C33.8117 9.796 33.6557 10.336 33.6557 11C33.6557 11.408 33.7237 11.78 33.8597 12.116C34.0037 12.452 34.2077 12.72 34.4717 12.92C34.7437 13.12 35.0717 13.224 35.4557 13.232ZM41.9148 14.156C41.4108 14.156 40.9428 14.032 40.5108 13.784C40.0788 13.528 39.7308 13.164 39.4668 12.692C39.2028 12.22 39.0708 11.664 39.0708 11.024C39.0708 10.368 39.2028 9.804 39.4668 9.332C39.7308 8.86 40.0788 8.496 40.5108 8.24C40.9428 7.984 41.4108 7.856 41.9148 7.856C42.4268 7.856 42.8868 7.964 43.2948 8.18C43.7108 8.388 44.0388 8.716 44.2788 9.164C44.5268 9.604 44.6508 10.172 44.6508 10.868V11.24H40.0668C40.0988 11.816 40.2668 12.296 40.5708 12.68C40.8748 13.056 41.3148 13.244 41.8908 13.244C42.2508 13.244 42.5788 13.16 42.8748 12.992C43.1708 12.824 43.4028 12.588 43.5708 12.284L44.4588 12.644C43.9628 13.652 43.1148 14.156 41.9148 14.156ZM41.8908 8.768C41.4028 8.768 41.0108 8.92 40.7148 9.224C40.4268 9.52 40.2348 9.896 40.1388 10.352H43.6428C43.6428 10.128 43.5748 9.896 43.4388 9.656C43.3108 9.408 43.1188 9.2 42.8628 9.032C42.6068 8.856 42.2828 8.768 41.8908 8.768ZM45.8788 14V8H46.8868V9.128C46.9268 8.984 47.0188 8.812 47.1628 8.612C47.3068 8.412 47.5188 8.236 47.7988 8.084C48.0788 7.932 48.4428 7.856 48.8908 7.856C49.4748 7.856 49.9548 8.044 50.3308 8.42C50.7148 8.796 50.9068 9.344 50.9068 10.064V14H49.8988V10.208C49.8988 9.688 49.7748 9.32 49.5268 9.104C49.2788 8.88 48.9548 8.768 48.5548 8.768C48.0028 8.768 47.5868 8.956 47.3068 9.332C47.0268 9.708 46.8868 10.184 46.8868 10.76V14H45.8788ZM33.0079 25.132C32.3359 25.132 31.7599 25.016 31.2799 24.784C30.7999 24.552 30.4039 24.236 30.0919 23.836C29.7879 23.428 29.5639 22.964 29.4199 22.444C29.2759 21.916 29.2039 21.364 29.2039 20.788C29.2039 20.212 29.2759 19.664 29.4199 19.144C29.5639 18.616 29.7879 18.152 30.0919 17.752C30.4039 17.344 30.7999 17.024 31.2799 16.792C31.7599 16.56 32.3359 16.444 33.0079 16.444C33.6799 16.444 34.2559 16.56 34.7359 16.792C35.2159 17.024 35.6079 17.344 35.9119 17.752C36.2239 18.152 36.4519 18.616 36.5959 19.144C36.7399 19.664 36.8119 20.212 36.8119 20.788C36.8119 21.364 36.7399 21.916 36.5959 22.444C36.4519 22.964 36.2239 23.428 35.9119 23.836C35.6079 24.236 35.2159 24.552 34.7359 24.784C34.2559 25.016 33.6799 25.132 33.0079 25.132ZM33.0079 24.172C33.6399 24.172 34.1519 24.02 34.5439 23.716C34.9439 23.412 35.2359 23.004 35.4199 22.492C35.6119 21.972 35.7079 21.404 35.7079 20.788C35.7079 20.164 35.6119 19.596 35.4199 19.084C35.2359 18.572 34.9439 18.164 34.5439 17.86C34.1519 17.556 33.6399 17.404 33.0079 17.404C32.4239 17.404 31.9279 17.556 31.5199 17.86C31.1199 18.164 30.8159 18.572 30.6079 19.084C30.4079 19.596 30.3079 20.164 30.3079 20.788C30.3079 21.404 30.4079 21.972 30.6079 22.492C30.8159 23.004 31.1199 23.412 31.5199 23.716C31.9279 24.02 32.4239 24.172 33.0079 24.172ZM40.0416 25.144C39.4576 25.144 38.9736 24.956 38.5896 24.58C38.2136 24.204 38.0256 23.656 38.0256 22.936V19H39.0336V22.792C39.0336 23.312 39.1576 23.684 39.4056 23.908C39.6536 24.124 39.9776 24.232 40.3776 24.232C40.9296 24.232 41.3456 24.044 41.6256 23.668C41.9056 23.292 42.0456 22.816 42.0456 22.24V19H43.0536V25H42.0456V23.872C42.0136 24.008 41.9216 24.18 41.7696 24.388C41.6256 24.588 41.4136 24.764 41.1336 24.916C40.8536 25.068 40.4896 25.144 40.0416 25.144ZM47.1658 25.156C46.6618 25.156 46.1938 25.032 45.7618 24.784C45.3298 24.528 44.9817 24.164 44.7177 23.692C44.4537 23.22 44.3217 22.664 44.3217 22.024C44.3217 21.368 44.4537 20.804 44.7177 20.332C44.9817 19.86 45.3298 19.496 45.7618 19.24C46.1938 18.984 46.6618 18.856 47.1658 18.856C47.6778 18.856 48.1378 18.964 48.5458 19.18C48.9618 19.388 49.2898 19.716 49.5298 20.164C49.7778 20.604 49.9018 21.172 49.9018 21.868V22.24H45.3178C45.3497 22.816 45.5177 23.296 45.8217 23.68C46.1258 24.056 46.5658 24.244 47.1417 24.244C47.5018 24.244 47.8298 24.16 48.1258 23.992C48.4218 23.824 48.6538 23.588 48.8218 23.284L49.7098 23.644C49.2138 24.652 48.3658 25.156 47.1658 25.156ZM47.1417 19.768C46.6538 19.768 46.2618 19.92 45.9658 20.224C45.6777 20.52 45.4857 20.896 45.3898 21.352H48.8938C48.8938 21.128 48.8258 20.896 48.6898 20.656C48.5618 20.408 48.3698 20.2 48.1137 20.032C47.8578 19.856 47.5338 19.768 47.1417 19.768ZM51.1298 25V19H52.1378V20.128C52.1778 19.984 52.2698 19.812 52.4138 19.612C52.5578 19.412 52.7698 19.236 53.0498 19.084C53.3298 18.932 53.6938 18.856 54.1418 18.856C54.7258 18.856 55.2058 19.044 55.5818 19.42C55.9658 19.796 56.1578 20.344 56.1578 21.064V25H55.1498V21.208C55.1498 20.688 55.0258 20.32 54.7778 20.104C54.5298 19.88 54.2058 19.768 53.8058 19.768C53.2538 19.768 52.8378 19.956 52.5578 20.332C52.2778 20.708 52.1378 21.184 52.1378 21.76V25H51.1298ZM60.0659 25.144C59.5459 25.144 59.0779 25.024 58.6619 24.784C58.2539 24.536 57.9339 24.18 57.7019 23.716C57.4699 23.244 57.3539 22.672 57.3539 22C57.3539 21.344 57.4659 20.784 57.6899 20.32C57.9139 19.848 58.2259 19.488 58.6259 19.24C59.0259 18.984 59.4859 18.856 60.0059 18.856C60.2859 18.856 60.5579 18.908 60.8219 19.012C61.0939 19.108 61.3299 19.252 61.5299 19.444C61.7379 19.636 61.8819 19.872 61.9619 20.152V16.456H62.9699V23.488C62.9699 23.728 63.0219 23.9 63.1259 24.004C63.2299 24.1 63.4299 24.116 63.7259 24.052V24.868C63.6459 24.916 63.5579 24.952 63.4619 24.976C63.3739 25 63.2539 25.012 63.1019 25.012C62.7899 25.012 62.5299 24.92 62.3219 24.736C62.1139 24.552 62.0099 24.248 62.0099 23.824C61.9219 24.04 61.7939 24.252 61.6259 24.46C61.4579 24.66 61.2419 24.824 60.9779 24.952C60.7219 25.08 60.4179 25.144 60.0659 25.144ZM60.1139 24.244C60.7059 24.244 61.1579 24.036 61.4699 23.62C61.7899 23.196 61.9499 22.656 61.9499 22C61.9499 21.592 61.8779 21.22 61.7339 20.884C61.5979 20.54 61.3939 20.268 61.1219 20.068C60.8579 19.868 60.5339 19.768 60.1499 19.768C59.7499 19.768 59.4139 19.872 59.1419 20.08C58.8779 20.28 58.6819 20.552 58.5539 20.896C58.4259 21.232 58.3619 21.608 58.3619 22.024C58.3619 22.44 58.4259 22.816 58.5539 23.152C58.6819 23.488 58.8739 23.756 59.1299 23.956C59.3939 24.148 59.7219 24.244 60.1139 24.244ZM67.0494 25.144C66.5294 25.144 66.0694 25.02 65.6694 24.772C65.2694 24.516 64.9574 24.156 64.7334 23.692C64.5094 23.22 64.3974 22.656 64.3974 22C64.3974 21.32 64.5134 20.748 64.7454 20.284C64.9774 19.82 65.2974 19.468 65.7054 19.228C66.1214 18.98 66.5894 18.856 67.1094 18.856C67.4614 18.856 67.7654 18.92 68.0214 19.048C68.2774 19.176 68.4894 19.34 68.6574 19.54C68.8334 19.74 68.9614 19.952 69.0414 20.176V19H70.0014V25H69.0054V23.848C68.9254 24.12 68.7814 24.356 68.5734 24.556C68.3734 24.748 68.1374 24.896 67.8654 25C67.6014 25.096 67.3294 25.144 67.0494 25.144ZM67.1934 24.232C67.5774 24.232 67.9014 24.132 68.1654 23.932C68.4374 23.724 68.6414 23.452 68.7774 23.116C68.9214 22.78 68.9934 22.408 68.9934 22C68.9934 21.336 68.8334 20.796 68.5134 20.38C68.2014 19.964 67.7494 19.756 67.1574 19.756C66.7654 19.756 66.4374 19.856 66.1734 20.056C65.9174 20.248 65.7254 20.512 65.5974 20.848C65.4694 21.184 65.4054 21.56 65.4054 21.976C65.4054 22.392 65.4694 22.772 65.5974 23.116C65.7254 23.452 65.9214 23.724 66.1854 23.932C66.4574 24.132 66.7934 24.232 67.1934 24.232ZM71.6624 25V19H72.6704V20.128C72.7104 19.984 72.8024 19.812 72.9464 19.612C73.0904 19.412 73.3024 19.236 73.5824 19.084C73.8624 18.932 74.2264 18.856 74.6744 18.856C75.2584 18.856 75.7384 19.044 76.1144 19.42C76.4984 19.796 76.6904 20.344 76.6904 21.064V25H75.6824V21.208C75.6824 20.688 75.5584 20.32 75.3104 20.104C75.0624 19.88 74.7384 19.768 74.3384 19.768C73.7864 19.768 73.3704 19.956 73.0904 20.332C72.8104 20.708 72.6704 21.184 72.6704 21.76V25H71.6624Z" fill="white"/>
<path d="M25.818 13.784L26.0356 13.3338L25.818 13.784ZM24.63 12.836L24.229 13.1348L24.2358 13.1435L24.63 12.836ZM23.958 11.444L23.4756 11.5756L23.4762 11.5774L23.958 11.444ZM23.958 8.144L24.4399 8.27744L24.4404 8.27556L23.958 8.144ZM24.63 6.752L24.2329 6.44827L24.232 6.44946L24.63 6.752ZM25.818 5.792L26.0356 6.24217L26.0356 6.24217L25.818 5.792ZM29.274 5.792L29.0564 6.24217L29.0564 6.24217L29.274 5.792ZM30.45 6.752L30.049 7.05081L30.0558 7.05952L30.45 6.752ZM31.134 8.144L30.6516 8.27556L30.6522 8.27744L31.134 8.144ZM31.134 11.444L31.6159 11.5774L31.6164 11.5756L31.134 11.444ZM30.45 12.836L30.0529 12.5323L30.052 12.5335L30.45 12.836ZM29.274 13.784L29.0564 13.3338L29.274 13.784ZM29.082 12.716L28.7795 12.3179L28.7756 12.3209L29.082 12.716ZM29.958 11.492L29.489 11.3188L29.4875 11.3229L29.958 11.492ZM29.958 8.084L29.4874 8.25312L29.4899 8.25956L29.958 8.084ZM29.082 6.86L28.7756 7.25513L28.7795 7.25808L29.082 6.86ZM26.058 6.86L25.7593 6.45904L25.7555 6.46192L26.058 6.86ZM25.146 8.084L24.6828 7.89579L24.6803 7.90207L25.146 8.084ZM25.146 11.492L24.6793 11.6715L24.6828 11.6802L25.146 11.492ZM26.058 12.716L25.7555 13.1141L25.7593 13.1169L26.058 12.716ZM27.546 14.132V13.632C26.9303 13.632 26.4325 13.5256 26.0356 13.3338L25.818 13.784L25.6004 14.2342C26.1636 14.5064 26.8178 14.632 27.546 14.632V14.132ZM25.818 13.784L26.0356 13.3338C25.6211 13.1335 25.2867 12.8649 25.0243 12.5285L24.63 12.836L24.2358 13.1435C24.5974 13.6071 25.055 13.9705 25.6004 14.2342L25.818 13.784ZM24.63 12.836L25.031 12.5373C24.7661 12.1818 24.5684 11.7746 24.4399 11.3106L23.958 11.444L23.4762 11.5774C23.6357 12.1534 23.8859 12.6742 24.2291 13.1347L24.63 12.836ZM23.958 11.444L24.4404 11.3124C24.3087 10.8295 24.242 10.3219 24.242 9.788H23.742H23.242C23.242 10.4061 23.3194 11.0025 23.4756 11.5756L23.958 11.444ZM23.742 9.788H24.242C24.242 9.25406 24.3087 8.75115 24.4399 8.27744L23.958 8.144L23.4762 8.01056C23.3193 8.57685 23.242 9.16994 23.242 9.788H23.742ZM23.958 8.144L24.4404 8.27556C24.5691 7.80388 24.7663 7.39909 25.0281 7.05454L24.63 6.752L24.232 6.44946C23.8858 6.90491 23.635 7.42812 23.4756 8.01244L23.958 8.144ZM24.63 6.752L25.0272 7.05572C25.2898 6.71233 25.6234 6.44143 26.0356 6.24217L25.818 5.792L25.6004 5.34183C25.0527 5.60657 24.5943 5.97567 24.2329 6.44827L24.63 6.752ZM25.818 5.792L26.0356 6.24217C26.4325 6.05037 26.9303 5.944 27.546 5.944V5.444V4.944C26.8178 4.944 26.1636 5.06963 25.6004 5.34183L25.818 5.792ZM27.546 5.444V5.944C28.1618 5.944 28.6596 6.05037 29.0564 6.24217L29.274 5.792L29.4916 5.34183C28.9285 5.06963 28.2743 4.944 27.546 4.944V5.444ZM29.274 5.792L29.0564 6.24217C29.4676 6.4409 29.7955 6.71034 30.0491 7.05074L30.45 6.752L30.851 6.45326C30.4966 5.97766 30.0405 5.6071 29.4916 5.34183L29.274 5.792ZM30.45 6.752L30.0558 7.05952C30.3239 7.40328 30.5237 7.80638 30.6516 8.27556L31.134 8.144L31.6164 8.01244C31.4564 7.42562 31.2001 6.90072 30.8443 6.44448L30.45 6.752ZM31.134 8.144L30.6522 8.27744C30.7833 8.75115 30.85 9.25406 30.85 9.788H31.35H31.85C31.85 9.16994 31.7727 8.57685 31.6159 8.01056L31.134 8.144ZM31.35 9.788H30.85C30.85 10.3219 30.7834 10.8295 30.6516 11.3124L31.134 11.444L31.6164 11.5756C31.7727 11.0025 31.85 10.4061 31.85 9.788H31.35ZM31.134 11.444L30.6522 11.3106C30.5244 11.7721 30.324 12.1776 30.0529 12.5323L30.45 12.836L30.8472 13.1397C31.2 12.6784 31.4557 12.1559 31.6159 11.5774L31.134 11.444ZM30.45 12.836L30.052 12.5335C29.7985 12.8669 29.4699 13.134 29.0564 13.3338L29.274 13.784L29.4916 14.2342C30.0381 13.97 30.4935 13.6051 30.8481 13.1385L30.45 12.836ZM29.274 13.784L29.0564 13.3338C28.6596 13.5256 28.1618 13.632 27.546 13.632V14.132V14.632C28.2743 14.632 28.9285 14.5064 29.4916 14.2342L29.274 13.784ZM27.546 13.172V13.672C28.2582 13.672 28.8872 13.4998 29.3884 13.1111L29.082 12.716L28.7756 12.3209C28.4929 12.5402 28.0979 12.672 27.546 12.672V13.172ZM29.082 12.716L29.3846 13.1141C29.8679 12.7467 30.2147 12.2562 30.4286 11.6611L29.958 11.492L29.4875 11.3229C29.3334 11.7518 29.0961 12.0773 28.7795 12.3179L29.082 12.716ZM29.958 11.492L30.4271 11.6652C30.6417 11.0839 30.746 10.4566 30.746 9.788H30.246H29.746C29.746 10.3514 29.6584 10.8601 29.489 11.3188L29.958 11.492ZM30.246 9.788H30.746C30.746 9.11241 30.642 8.48391 30.4262 7.90844L29.958 8.084L29.4899 8.25956C29.6581 8.70809 29.746 9.21559 29.746 9.788H30.246ZM29.958 8.084L30.4286 7.9149C30.2147 7.31981 29.8679 6.82926 29.3846 6.46192L29.082 6.86L28.7795 7.25808C29.0961 7.49874 29.3334 7.82419 29.4875 8.2531L29.958 8.084ZM29.082 6.86L29.3884 6.46489C28.8872 6.07617 28.2582 5.904 27.546 5.904V6.404V6.904C28.0979 6.904 28.4929 7.03583 28.7756 7.25511L29.082 6.86ZM27.546 6.404V5.904C26.871 5.904 26.266 6.0815 25.7593 6.45906L26.058 6.86L26.3568 7.26094C26.666 7.0305 27.0531 6.904 27.546 6.904V6.404ZM26.058 6.86L25.7555 6.46192C25.2771 6.82553 24.9211 7.30925 24.6828 7.89581L25.146 8.084L25.6093 8.27219C25.787 7.83475 26.039 7.50247 26.3606 7.25808L26.058 6.86ZM25.146 8.084L24.6803 7.90207C24.4548 8.47935 24.346 9.1101 24.346 9.788H24.846H25.346C25.346 9.2179 25.4373 8.71265 25.6118 8.26592L25.146 8.084ZM24.846 9.788H24.346C24.346 10.4589 24.4551 11.0885 24.6794 11.6715L25.146 11.492L25.6127 11.3125C25.4369 10.8555 25.346 10.3491 25.346 9.788H24.846ZM25.146 11.492L24.6828 11.6802C24.9211 12.2667 25.2771 12.7505 25.7555 13.1141L26.058 12.716L26.3606 12.3179C26.039 12.0735 25.787 11.7413 25.6093 11.3038L25.146 11.492ZM26.058 12.716L25.7593 13.1169C26.266 13.4945 26.871 13.672 27.546 13.672V13.172V12.672C27.0531 12.672 26.666 12.5455 26.3568 12.3151L26.058 12.716ZM32.6357 16.76H32.1357V17.26H32.6357V16.76ZM32.6357 8V7.5H32.1357V8H32.6357ZM33.6077 8H34.1077V7.5H33.6077V8ZM33.6077 9.176H33.1077L34.0731 9.35883L33.6077 9.176ZM36.9437 8.228L36.684 8.65531L36.6902 8.65897L36.9437 8.228ZM37.9037 9.284L37.4565 9.50761L37.4565 9.50761L37.9037 9.284ZM37.9157 12.692L38.366 12.9094L38.3674 12.9064L37.9157 12.692ZM36.9797 13.772L37.247 14.1945L37.2492 14.1931L36.9797 13.772ZM34.7837 14L34.6051 14.4672L34.6173 14.4715L34.7837 14ZM34.0757 13.556L33.7221 13.9096L33.7295 13.9167L34.0757 13.556ZM33.6437 12.848L34.1194 12.6941L33.1437 12.848H33.6437ZM33.6437 16.76V17.26H34.1437V16.76H33.6437ZM35.4557 13.232L35.4453 13.732H35.4557V13.232ZM36.4637 12.932L36.1618 12.5335L36.1618 12.5335L36.4637 12.932ZM37.0517 12.116L36.5831 11.9416L36.5831 11.9416L37.0517 12.116ZM37.0517 9.848L36.5845 10.026L36.5845 10.026L37.0517 9.848ZM36.4637 9.056L36.1559 9.45001L36.1627 9.45531L36.1696 9.46037L36.4637 9.056ZM34.1237 9.38L33.7274 9.07512L33.7237 9.08L34.1237 9.38ZM33.8597 12.116L33.3962 12.3036L33.4001 12.313L33.8597 12.116ZM34.4717 12.92L34.1698 13.3186L34.1755 13.3228L34.4717 12.92ZM32.6357 16.76H33.1357V8H32.6357H32.1357V16.76H32.6357ZM32.6357 8V8.5H33.6077V8V7.5H32.6357V8ZM33.6077 8H33.1077V9.176H33.6077H34.1077V8H33.6077ZM33.6077 9.176L34.0731 9.35883C34.1397 9.18937 34.2384 9.02365 34.3746 8.8616L33.9917 8.54L33.6089 8.2184C33.409 8.45635 33.2518 8.71463 33.1423 8.99317L33.6077 9.176ZM33.9917 8.54L34.3746 8.8616C34.4946 8.71873 34.6505 8.59561 34.8513 8.49521L34.6277 8.048L34.4041 7.60079C34.0929 7.75639 33.8249 7.96127 33.6089 8.2184L33.9917 8.54ZM34.6277 8.048L34.8513 8.49521C35.0238 8.40899 35.2478 8.356 35.5397 8.356V7.856V7.356C35.1276 7.356 34.7437 7.431 34.4041 7.60079L34.6277 8.048ZM35.5397 7.856V8.356C35.9861 8.356 36.3624 8.45977 36.684 8.65526L36.9437 8.228L37.2034 7.80074C36.709 7.50023 36.1493 7.356 35.5397 7.356V7.856ZM36.9437 8.228L36.6902 8.65897C37.007 8.84534 37.2634 9.12137 37.4565 9.50761L37.9037 9.284L38.3509 9.06039C38.0801 8.51863 37.6964 8.09066 37.1972 7.79703L36.9437 8.228ZM37.9037 9.284L37.4565 9.50761C37.6447 9.88404 37.7517 10.3744 37.7517 11H38.2517H38.7517C38.7517 10.2656 38.6267 9.61196 38.3509 9.06039L37.9037 9.284ZM38.2517 11H37.7517C37.7517 11.6003 37.6492 12.0875 37.464 12.4776L37.9157 12.692L38.3674 12.9064C38.6303 12.3525 38.7517 11.7117 38.7517 11H38.2517ZM37.9157 12.692L37.4654 12.4746C37.2781 12.8626 37.0257 13.149 36.7102 13.3509L36.9797 13.772L37.2492 14.1931C37.7338 13.883 38.1053 13.4494 38.366 12.9094L37.9157 12.692ZM36.9797 13.772L36.7124 13.3495C36.411 13.5401 36.0465 13.644 35.5997 13.644V14.144V14.644C36.2089 14.644 36.7644 14.4999 37.247 14.1945L36.9797 13.772ZM35.5997 14.144V13.644C35.3878 13.644 35.1719 13.6068 34.9501 13.5285L34.7837 14L34.6173 14.4715C34.9395 14.5852 35.2677 14.644 35.5997 14.644V14.144ZM34.7837 14L34.9623 13.533C34.7495 13.4516 34.5713 13.3387 34.422 13.1953L34.0757 13.556L33.7295 13.9167C33.9801 14.1573 34.2739 14.3404 34.6052 14.467L34.7837 14ZM34.0757 13.556L34.4293 13.2024C34.2858 13.059 34.1834 12.8917 34.1194 12.6941L33.6437 12.848L33.168 13.0019C33.2801 13.3483 33.4656 13.653 33.7222 13.9096L34.0757 13.556ZM33.6437 12.848H33.1437V16.76H33.6437H34.1437V12.848H33.6437ZM33.6437 16.76V16.26H32.6357V16.76V17.26H33.6437V16.76ZM35.4557 13.232V13.732C35.9469 13.732 36.3962 13.6104 36.7656 13.3305L36.4637 12.932L36.1618 12.5335C36.0032 12.6536 35.7805 12.732 35.4557 12.732V13.232ZM36.4637 12.932L36.7656 13.3305C37.1134 13.0671 37.3629 12.7134 37.5203 12.2904L37.0517 12.116L36.5831 11.9416C36.4845 12.2066 36.342 12.3969 36.1618 12.5335L36.4637 12.932ZM37.0517 12.116L37.5203 12.2904C37.6717 11.8837 37.7437 11.4437 37.7437 10.976H37.2437H36.7437C36.7437 11.3403 36.6878 11.6603 36.5831 11.9416L37.0517 12.116ZM37.2437 10.976H37.7437C37.7437 10.5086 37.6717 10.071 37.519 9.67L37.0517 9.848L36.5845 10.026C36.6877 10.297 36.7437 10.6114 36.7437 10.976H37.2437ZM37.0517 9.848L37.519 9.67C37.3601 9.2529 37.1081 8.90642 36.7578 8.65163L36.4637 9.056L36.1696 9.46037C36.3473 9.58958 36.4874 9.7711 36.5845 10.026L37.0517 9.848ZM36.4637 9.056L36.7715 8.66199C36.4106 8.37997 35.9715 8.256 35.4917 8.256V8.756V9.256C35.7959 9.256 36.0049 9.33203 36.1559 9.45001L36.4637 9.056ZM35.4917 8.756V8.256C34.7671 8.256 34.1551 8.51919 33.7274 9.07514L34.1237 9.38L34.52 9.68486C34.7324 9.40881 35.0323 9.256 35.4917 9.256V8.756ZM34.1237 9.38L33.7237 9.08C33.3308 9.60394 33.1557 10.258 33.1557 11H33.6557H34.1557C34.1557 10.414 34.2927 9.98806 34.5237 9.68L34.1237 9.38ZM33.6557 11H33.1557C33.1557 11.4643 33.2333 11.901 33.3962 12.3036L33.8597 12.116L34.3232 11.9284C34.2142 11.659 34.1557 11.3517 34.1557 11H33.6557ZM33.8597 12.116L33.4001 12.313C33.5747 12.7202 33.8296 13.0609 34.1698 13.3185L34.4717 12.92L34.7736 12.5215C34.5858 12.3791 34.4328 12.1838 34.3193 11.919L33.8597 12.116ZM34.4717 12.92L34.1755 13.3228C34.5416 13.592 34.973 13.7221 35.4453 13.7319L35.4557 13.232L35.4661 12.7321C35.1704 12.7259 34.9458 12.648 34.7679 12.5172L34.4717 12.92ZM40.5108 13.784L40.2559 14.2142L40.2619 14.2176L40.5108 13.784ZM39.4668 12.692L39.9032 12.4479L39.9032 12.4479L39.4668 12.692ZM39.4668 9.332L39.0304 9.08792L39.0304 9.08792L39.4668 9.332ZM43.2948 8.18L43.0608 8.62201L43.0712 8.62721L43.2948 8.18ZM44.2788 9.164L43.838 9.40016L43.8432 9.40951L44.2788 9.164ZM44.6508 11.24V11.74H45.1508V11.24H44.6508ZM40.0668 11.24V10.74H39.5383L39.5676 11.2677L40.0668 11.24ZM40.5708 12.68L40.1788 12.9904L40.182 12.9944L40.5708 12.68ZM42.8748 12.992L42.628 12.5572L42.628 12.5572L42.8748 12.992ZM43.5708 12.284L43.7587 11.8206L43.3477 11.654L43.1332 12.0422L43.5708 12.284ZM44.4588 12.644L44.9074 12.8648L45.1447 12.3825L44.6467 12.1806L44.4588 12.644ZM40.7148 9.224L40.3566 8.87519L40.3564 8.87532L40.7148 9.224ZM40.1388 10.352L39.6495 10.249L39.5226 10.852H40.1388V10.352ZM43.6428 10.352V10.852H44.1428V10.352H43.6428ZM43.4388 9.656L42.9945 9.88532L42.999 9.894L43.0038 9.90251L43.4388 9.656ZM42.8628 9.032L42.5795 9.44412L42.5885 9.45002L42.8628 9.032ZM41.9148 14.156V13.656C41.4971 13.656 41.1151 13.5543 40.7597 13.3504L40.5108 13.784L40.2619 14.2176C40.7706 14.5097 41.3245 14.656 41.9148 14.656V14.156ZM40.5108 13.784L40.7657 13.3539C40.4154 13.1462 40.1276 12.8491 39.9032 12.4479L39.4668 12.692L39.0304 12.9361C39.334 13.4789 39.7423 13.9098 40.2559 14.2141L40.5108 13.784ZM39.4668 12.692L39.9032 12.4479C39.688 12.0631 39.5708 11.5943 39.5708 11.024H39.0708H38.5708C38.5708 11.7337 38.7177 12.3769 39.0304 12.9361L39.4668 12.692ZM39.0708 11.024H39.5708C39.5708 10.4353 39.6889 9.95914 39.9032 9.57608L39.4668 9.332L39.0304 9.08792C38.7167 9.64886 38.5708 10.3007 38.5708 11.024H39.0708ZM39.4668 9.332L39.9032 9.57608C40.1276 9.17489 40.4154 8.87776 40.7657 8.67015L40.5108 8.24L40.2559 7.80985C39.7423 8.11424 39.334 8.54511 39.0304 9.08792L39.4668 9.332ZM40.5108 8.24L40.7657 8.67015C41.1203 8.46005 41.5002 8.356 41.9148 8.356V7.856V7.356C41.3215 7.356 40.7654 7.50795 40.2559 7.80985L40.5108 8.24ZM41.9148 7.856V8.356C42.3543 8.356 42.7325 8.44807 43.0609 8.62189L43.2948 8.18L43.5288 7.73811C43.0411 7.47993 42.4993 7.356 41.9148 7.356V7.856ZM43.2948 8.18L43.0712 8.62721C43.3861 8.78468 43.6421 9.03436 43.8381 9.40011L44.2788 9.164L44.7196 8.92789C44.4355 8.39764 44.0355 7.99132 43.5184 7.73279L43.2948 8.18ZM44.2788 9.164L43.8432 9.40951C44.036 9.75154 44.1508 10.227 44.1508 10.868H44.6508H45.1508C45.1508 10.117 45.0176 9.45646 44.7144 8.91849L44.2788 9.164ZM44.6508 10.868H44.1508V11.24H44.6508H45.1508V10.868H44.6508ZM44.6508 11.24V10.74H40.0668V11.24V11.74H44.6508V11.24ZM40.0668 11.24L39.5676 11.2677C39.6043 11.9279 39.8 12.5118 40.1788 12.9904L40.5708 12.68L40.9628 12.3696C40.7337 12.0802 40.5934 11.7041 40.566 11.2123L40.0668 11.24ZM40.5708 12.68L40.182 12.9944C40.5994 13.5106 41.1959 13.744 41.8908 13.744V13.244V12.744C41.4337 12.744 41.1502 12.6014 40.9596 12.3656L40.5708 12.68ZM41.8908 13.244V13.744C42.3322 13.744 42.746 13.64 43.1216 13.4268L42.8748 12.992L42.628 12.5572C42.4116 12.68 42.1695 12.744 41.8908 12.744V13.244ZM42.8748 12.992L43.1216 13.4268C43.4995 13.2124 43.7968 12.9088 44.0084 12.5258L43.5708 12.284L43.1332 12.0422C43.0088 12.2672 42.8421 12.4356 42.628 12.5572L42.8748 12.992ZM43.5708 12.284L43.383 12.7474L44.271 13.1074L44.4588 12.644L44.6467 12.1806L43.7587 11.8206L43.5708 12.284ZM44.4588 12.644L44.0102 12.4232C43.7989 12.8527 43.5249 13.1523 43.1954 13.3482C42.8638 13.5452 42.4443 13.656 41.9148 13.656V14.156V14.656C42.5853 14.656 43.1898 14.5148 43.7063 14.2078C44.2247 13.8997 44.6228 13.4433 44.9074 12.8648L44.4588 12.644ZM41.8908 8.768V8.268C41.29 8.268 40.761 8.45979 40.3566 8.87519L40.7148 9.224L41.073 9.57281C41.2606 9.38021 41.5157 9.268 41.8908 9.268V8.768ZM40.7148 9.224L40.3564 8.87532C39.9942 9.2476 39.7625 9.71259 39.6495 10.249L40.1388 10.352L40.6281 10.455C40.7072 10.0794 40.8594 9.7924 41.0732 9.57268L40.7148 9.224ZM40.1388 10.352V10.852H43.6428V10.352V9.852H40.1388V10.352ZM43.6428 10.352H44.1428C44.1428 10.0237 44.0426 9.70742 43.8738 9.40949L43.4388 9.656L43.0038 9.90251C43.107 10.0846 43.1428 10.2323 43.1428 10.352H43.6428ZM43.4388 9.656L43.8831 9.42668C43.7119 9.09492 43.4579 8.82449 43.1371 8.61398L42.8628 9.032L42.5885 9.45002C42.7797 9.57551 42.9097 9.72108 42.9945 9.88532L43.4388 9.656ZM42.8628 9.032L43.1461 8.61998C42.7873 8.37329 42.3574 8.268 41.8908 8.268V8.768V9.268C42.2082 9.268 42.4264 9.33871 42.5795 9.44402L42.8628 9.032ZM45.8788 14H45.3788V14.5H45.8788V14ZM45.8788 8V7.5H45.3788V8H45.8788ZM46.8868 8H47.3868V7.5H46.8868V8ZM46.8868 9.128H46.3868L47.3686 9.26182L46.8868 9.128ZM47.1628 8.612L47.5686 8.90415L47.5686 8.90415L47.1628 8.612ZM50.3308 8.42L49.9773 8.77357L49.981 8.77725L50.3308 8.42ZM50.9068 14V14.5H51.4068V14H50.9068ZM49.8988 14H49.3988V14.5H49.8988V14ZM49.5268 9.104L49.1916 9.47511L49.1985 9.48104L49.5268 9.104ZM47.3068 9.332L46.9058 9.03337L46.9058 9.03337L47.3068 9.332ZM46.8868 14V14.5H47.3868V14H46.8868ZM45.8788 14H46.3788V8H45.8788H45.3788V14H45.8788ZM45.8788 8V8.5H46.8868V8V7.5H45.8788V8ZM46.8868 8H46.3868V9.128H46.8868H47.3868V8H46.8868ZM46.8868 9.128L47.3686 9.26182C47.3859 9.19967 47.4397 9.08321 47.5686 8.90415L47.1628 8.612L46.7571 8.31985C46.598 8.54079 46.4678 8.76833 46.4051 8.99418L46.8868 9.128ZM47.1628 8.612L47.5686 8.90415C47.6577 8.78035 47.8048 8.64966 48.0374 8.52343L47.7988 8.084L47.5603 7.64457C47.2328 7.82233 46.9559 8.04364 46.7571 8.31985L47.1628 8.612ZM47.7988 8.084L48.0374 8.52343C48.2205 8.42405 48.4942 8.356 48.8908 8.356V7.856V7.356C48.3915 7.356 47.9372 7.43995 47.5603 7.64457L47.7988 8.084ZM48.8908 7.856V8.356C49.3566 8.356 49.7047 8.50099 49.9773 8.77355L50.3308 8.42L50.6844 8.06645C50.205 7.58701 49.5931 7.356 48.8908 7.356V7.856ZM50.3308 8.42L49.981 8.77725C50.2398 9.03061 50.4068 9.43118 50.4068 10.064H50.9068H51.4068C51.4068 9.25682 51.1899 8.56139 50.6807 8.06274L50.3308 8.42ZM50.9068 10.064H50.4068V14H50.9068H51.4068V10.064H50.9068ZM50.9068 14V13.5H49.8988V14V14.5H50.9068V14ZM49.8988 14H50.3988V10.208H49.8988H49.3988V14H49.8988ZM49.8988 10.208H50.3988C50.3988 9.62647 50.2622 9.08145 49.8552 8.72696L49.5268 9.104L49.1985 9.48104C49.2874 9.55855 49.3988 9.74953 49.3988 10.208H49.8988ZM49.5268 9.104L49.862 8.73295C49.5046 8.41018 49.0529 8.268 48.5548 8.268V8.768V9.268C48.8567 9.268 49.053 9.34982 49.1917 9.47505L49.5268 9.104ZM48.5548 8.768V8.268C47.8766 8.268 47.2977 8.50719 46.9058 9.03337L47.3068 9.332L47.7079 9.63063C47.876 9.40481 48.1291 9.268 48.5548 9.268V8.768ZM47.3068 9.332L46.9058 9.03337C46.548 9.51383 46.3868 10.1015 46.3868 10.76H46.8868H47.3868C47.3868 10.2665 47.5057 9.90217 47.7079 9.63063L47.3068 9.332ZM46.8868 10.76H46.3868V14H46.8868H47.3868V10.76H46.8868ZM46.8868 14V13.5H45.8788V14V14.5H46.8868V14ZM31.2799 24.784L31.4975 24.3338L31.2799 24.784ZM30.0919 23.836L29.6909 24.1348L29.6977 24.1435L30.0919 23.836ZM29.4199 22.444L28.9375 22.5756L28.938 22.5774L29.4199 22.444ZM29.4199 19.144L29.9018 19.2774L29.9023 19.2756L29.4199 19.144ZM30.0919 17.752L29.6947 17.4483L29.6938 17.4495L30.0919 17.752ZM31.2799 16.792L31.4975 17.2422L31.4975 17.2422L31.2799 16.792ZM34.7359 16.792L34.5183 17.2422L34.5183 17.2422L34.7359 16.792ZM35.9119 17.752L35.5109 18.0508L35.5177 18.0595L35.9119 17.752ZM36.5959 19.144L36.1135 19.2756L36.114 19.2774L36.5959 19.144ZM36.5959 22.444L37.0778 22.5774L37.0783 22.5756L36.5959 22.444ZM35.9119 23.836L35.5147 23.5323L35.5138 23.5335L35.9119 23.836ZM34.7359 24.784L34.5183 24.3338L34.7359 24.784ZM34.5439 23.716L34.2414 23.3179L34.2375 23.3209L34.5439 23.716ZM35.4199 22.492L34.9508 22.3188L34.9494 22.3229L35.4199 22.492ZM35.4199 19.084L34.9493 19.2531L34.9517 19.2596L35.4199 19.084ZM34.5439 17.86L34.2375 18.2551L34.2414 18.2581L34.5439 17.86ZM31.5199 17.86L31.2212 17.459L31.2174 17.4619L31.5199 17.86ZM30.6079 19.084L30.1446 18.8958L30.1422 18.9021L30.6079 19.084ZM30.6079 22.492L30.1412 22.6715L30.1447 22.6802L30.6079 22.492ZM31.5199 23.716L31.2174 24.1141L31.2212 24.1169L31.5199 23.716ZM33.0079 25.132V24.632C32.3922 24.632 31.8943 24.5256 31.4975 24.3338L31.2799 24.784L31.0623 25.2342C31.6255 25.5064 32.2796 25.632 33.0079 25.632V25.132ZM31.2799 24.784L31.4975 24.3338C31.0829 24.1335 30.7486 23.8649 30.4862 23.5285L30.0919 23.836L29.6977 24.1435C30.0592 24.6071 30.5169 24.9705 31.0623 25.2342L31.2799 24.784ZM30.0919 23.836L30.4928 23.5373C30.228 23.1818 30.0303 22.7746 29.9018 22.3106L29.4199 22.444L28.938 22.5774C29.0975 23.1534 29.3478 23.6742 29.691 24.1347L30.0919 23.836ZM29.4199 22.444L29.9023 22.3124C29.7706 21.8295 29.7039 21.3219 29.7039 20.788H29.2039H28.7039C28.7039 21.4061 28.7812 22.0025 28.9375 22.5756L29.4199 22.444ZM29.2039 20.788H29.7039C29.7039 20.2541 29.7706 19.7512 29.9018 19.2774L29.4199 19.144L28.938 19.0106C28.7812 19.5768 28.7039 20.1699 28.7039 20.788H29.2039ZM29.4199 19.144L29.9023 19.2756C30.0309 18.8039 30.2281 18.3991 30.49 18.0545L30.0919 17.752L29.6938 17.4495C29.3477 17.9049 29.0969 18.4281 28.9375 19.0124L29.4199 19.144ZM30.0919 17.752L30.4891 18.0557C30.7517 17.7123 31.0852 17.4414 31.4975 17.2422L31.2799 16.792L31.0623 16.3418C30.5146 16.6066 30.0561 16.9757 29.6947 17.4483L30.0919 17.752ZM31.2799 16.792L31.4975 17.2422C31.8943 17.0504 32.3922 16.944 33.0079 16.944V16.444V15.944C32.2796 15.944 31.6255 16.0696 31.0623 16.3418L31.2799 16.792ZM33.0079 16.444V16.944C33.6236 16.944 34.1215 17.0504 34.5183 17.2422L34.7359 16.792L34.9535 16.3418C34.3903 16.0696 33.7362 15.944 33.0079 15.944V16.444ZM34.7359 16.792L34.5183 17.2422C34.9295 17.4409 35.2573 17.7103 35.511 18.0507L35.9119 17.752L36.3128 17.4533C35.9585 16.9777 35.5023 16.6071 34.9535 16.3418L34.7359 16.792ZM35.9119 17.752L35.5177 18.0595C35.7858 18.4033 35.9856 18.8064 36.1135 19.2756L36.5959 19.144L37.0783 19.0124C36.9182 18.4256 36.662 17.9007 36.3062 17.4445L35.9119 17.752ZM36.5959 19.144L36.114 19.2774C36.2452 19.7512 36.3119 20.2541 36.3119 20.788H36.8119H37.3119C37.3119 20.1699 37.2346 19.5768 37.0778 19.0106L36.5959 19.144ZM36.8119 20.788H36.3119C36.3119 21.3219 36.2452 21.8295 36.1135 22.3124L36.5959 22.444L37.0783 22.5756C37.2346 22.0025 37.3119 21.4061 37.3119 20.788H36.8119ZM36.5959 22.444L36.114 22.3106C35.9862 22.7721 35.7859 23.1776 35.5147 23.5323L35.9119 23.836L36.3091 24.1397C36.6619 23.6784 36.9176 23.1559 37.0778 22.5774L36.5959 22.444ZM35.9119 23.836L35.5138 23.5335C35.2604 23.8669 34.9318 24.134 34.5183 24.3338L34.7359 24.784L34.9535 25.2342C35.5 24.97 35.9554 24.6051 36.31 24.1385L35.9119 23.836ZM34.7359 24.784L34.5183 24.3338C34.1215 24.5256 33.6236 24.632 33.0079 24.632V25.132V25.632C33.7362 25.632 34.3903 25.5064 34.9535 25.2342L34.7359 24.784ZM33.0079 24.172V24.672C33.7201 24.672 34.3491 24.4998 34.8503 24.1111L34.5439 23.716L34.2375 23.3209C33.9547 23.5402 33.5598 23.672 33.0079 23.672V24.172ZM34.5439 23.716L34.8464 24.1141C35.3298 23.7467 35.6766 23.2562 35.8904 22.6611L35.4199 22.492L34.9494 22.3229C34.7952 22.7518 34.558 23.0773 34.2414 23.3179L34.5439 23.716ZM35.4199 22.492L35.889 22.6652C36.1036 22.0839 36.2079 21.4566 36.2079 20.788H35.7079H35.2079C35.2079 21.3514 35.1202 21.8601 34.9509 22.3188L35.4199 22.492ZM35.7079 20.788H36.2079C36.2079 20.1124 36.1039 19.4839 35.8881 18.9084L35.4199 19.084L34.9517 19.2596C35.1199 19.7081 35.2079 20.2156 35.2079 20.788H35.7079ZM35.4199 19.084L35.8904 18.9149C35.6766 18.3198 35.3298 17.8293 34.8464 17.4619L34.5439 17.86L34.2414 18.2581C34.558 18.4987 34.7952 18.8242 34.9494 19.2531L35.4199 19.084ZM34.5439 17.86L34.8503 17.4649C34.3491 17.0762 33.7201 16.904 33.0079 16.904V17.404V17.904C33.5598 17.904 33.9547 18.0358 34.2375 18.2551L34.5439 17.86ZM33.0079 17.404V16.904C32.3328 16.904 31.7279 17.0815 31.2212 17.4591L31.5199 17.86L31.8186 18.2609C32.1279 18.0305 32.515 17.904 33.0079 17.904V17.404ZM31.5199 17.86L31.2174 17.4619C30.7389 17.8255 30.383 18.3093 30.1447 18.8958L30.6079 19.084L31.0711 19.2722C31.2489 18.8347 31.5009 18.5025 31.8224 18.2581L31.5199 17.86ZM30.6079 19.084L30.1422 18.9021C29.9167 19.4794 29.8079 20.1101 29.8079 20.788H30.3079H30.8079C30.8079 20.2179 30.8991 19.7126 31.0736 19.2659L30.6079 19.084ZM30.3079 20.788H29.8079C29.8079 21.4589 29.917 22.0885 30.1412 22.6715L30.6079 22.492L31.0746 22.3125C30.8988 21.8555 30.8079 21.3491 30.8079 20.788H30.3079ZM30.6079 22.492L30.1447 22.6802C30.383 23.2667 30.7389 23.7505 31.2174 24.1141L31.5199 23.716L31.8224 23.3179C31.5009 23.0735 31.2489 22.7413 31.0711 22.3038L30.6079 22.492ZM31.5199 23.716L31.2212 24.1169C31.7279 24.4945 32.3328 24.672 33.0079 24.672V24.172V23.672C32.515 23.672 32.1279 23.5455 31.8186 23.3151L31.5199 23.716ZM38.5896 24.58L38.236 24.9336L38.2398 24.9373L38.5896 24.58ZM38.0256 19V18.5H37.5256V19H38.0256ZM39.0336 19H39.5336V18.5H39.0336V19ZM39.4056 23.908L39.0704 24.2791L39.0772 24.285L39.4056 23.908ZM41.6256 23.668L41.2246 23.3694L41.2246 23.3694L41.6256 23.668ZM42.0456 19V18.5H41.5456V19H42.0456ZM43.0536 19H43.5536V18.5H43.0536V19ZM43.0536 25V25.5H43.5536V25H43.0536ZM42.0456 25H41.5456V25.5H42.0456V25ZM42.0456 23.872H42.5456L41.5589 23.7575L42.0456 23.872ZM41.7696 24.388L41.3659 24.093L41.3638 24.0958L41.7696 24.388ZM41.1336 24.916L41.3721 25.3554L41.3721 25.3554L41.1336 24.916ZM40.0416 25.144V24.644C39.5759 24.644 39.2214 24.4989 38.9394 24.2227L38.5896 24.58L38.2398 24.9373C38.7258 25.4131 39.3393 25.644 40.0416 25.644V25.144ZM38.5896 24.58L38.9431 24.2264C38.6903 23.9736 38.5256 23.5716 38.5256 22.936H38.0256H37.5256C37.5256 23.7404 37.7369 24.4344 38.236 24.9336L38.5896 24.58ZM38.0256 22.936H38.5256V19H38.0256H37.5256V22.936H38.0256ZM38.0256 19V19.5H39.0336V19V18.5H38.0256V19ZM39.0336 19H38.5336V22.792H39.0336H39.5336V19H39.0336ZM39.0336 22.792H38.5336C38.5336 23.3756 38.6711 23.9183 39.0705 24.2791L39.4056 23.908L39.7407 23.5369C39.6441 23.4497 39.5336 23.2484 39.5336 22.792H39.0336ZM39.4056 23.908L39.0772 24.285C39.4349 24.5966 39.8841 24.732 40.3776 24.732V24.232V23.732C40.0711 23.732 39.8723 23.6514 39.734 23.531L39.4056 23.908ZM40.3776 24.232V24.732C41.0558 24.732 41.6348 24.4928 42.0266 23.9666L41.6256 23.668L41.2246 23.3694C41.0564 23.5952 40.8034 23.732 40.3776 23.732V24.232ZM41.6256 23.668L42.0266 23.9666C42.3844 23.4862 42.5456 22.8985 42.5456 22.24H42.0456H41.5456C41.5456 22.7335 41.4268 23.0978 41.2246 23.3694L41.6256 23.668ZM42.0456 22.24H42.5456V19H42.0456H41.5456V22.24H42.0456ZM42.0456 19V19.5H43.0536V19V18.5H42.0456V19ZM43.0536 19H42.5536V25H43.0536H43.5536V19H43.0536ZM43.0536 25V24.5H42.0456V25V25.5H43.0536V25ZM42.0456 25H42.5456V23.872H42.0456H41.5456V25H42.0456ZM42.0456 23.872L41.5589 23.7575C41.5502 23.7945 41.5061 23.9011 41.3659 24.093L41.7696 24.388L42.1733 24.683C42.3371 24.4589 42.477 24.2215 42.5323 23.9865L42.0456 23.872ZM41.7696 24.388L41.3638 24.0958C41.2747 24.2196 41.1276 24.3503 40.895 24.4766L41.1336 24.916L41.3721 25.3554C41.6996 25.1777 41.9765 24.9564 42.1754 24.6802L41.7696 24.388ZM41.1336 24.916L40.895 24.4766C40.712 24.576 40.4382 24.644 40.0416 24.644V25.144V25.644C40.541 25.644 40.9952 25.56 41.3721 25.3554L41.1336 24.916ZM45.7618 24.784L45.5068 25.2142L45.5128 25.2176L45.7618 24.784ZM44.7177 23.692L45.1541 23.4479L45.1541 23.4479L44.7177 23.692ZM44.7177 20.332L44.2814 20.0879L44.2814 20.0879L44.7177 20.332ZM48.5458 19.18L48.3117 19.622L48.3221 19.6272L48.5458 19.18ZM49.5298 20.164L49.0889 20.4002L49.0942 20.4095L49.5298 20.164ZM49.9018 22.24V22.74H50.4018V22.24H49.9018ZM45.3178 22.24V21.74H44.7892L44.8185 22.2677L45.3178 22.24ZM45.8217 23.68L45.4297 23.9904L45.4329 23.9944L45.8217 23.68ZM48.1258 23.992L47.8789 23.5572L47.8789 23.5572L48.1258 23.992ZM48.8218 23.284L49.0096 22.8206L48.5986 22.654L48.3841 23.0422L48.8218 23.284ZM49.7098 23.644L50.1584 23.8648L50.3957 23.3825L49.8976 23.1806L49.7098 23.644ZM45.9658 20.224L45.6075 19.8752L45.6074 19.8753L45.9658 20.224ZM45.3898 21.352L44.9005 21.249L44.7735 21.852H45.3898V21.352ZM48.8938 21.352V21.852H49.3938V21.352H48.8938ZM48.6898 20.656L48.2454 20.8853L48.2499 20.894L48.2547 20.9025L48.6898 20.656ZM48.1137 20.032L47.8304 20.4441L47.8394 20.45L48.1137 20.032ZM47.1658 25.156V24.656C46.748 24.656 46.366 24.5543 46.0107 24.3504L45.7618 24.784L45.5128 25.2176C46.0215 25.5097 46.5755 25.656 47.1658 25.656V25.156ZM45.7618 24.784L46.0167 24.3539C45.6663 24.1462 45.3785 23.8491 45.1541 23.4479L44.7177 23.692L44.2814 23.9361C44.585 24.4789 44.9932 24.9098 45.5068 25.2141L45.7618 24.784ZM44.7177 23.692L45.1541 23.4479C44.9389 23.0631 44.8217 22.5943 44.8217 22.024H44.3217H43.8217C43.8217 22.7337 43.9686 23.3769 44.2814 23.9361L44.7177 23.692ZM44.3217 22.024H44.8217C44.8217 21.4353 44.9399 20.9591 45.1541 20.5761L44.7177 20.332L44.2814 20.0879C43.9676 20.6489 43.8217 21.3007 43.8217 22.024H44.3217ZM44.7177 20.332L45.1541 20.5761C45.3785 20.1749 45.6663 19.8778 46.0167 19.6701L45.7618 19.24L45.5068 18.8099C44.9932 19.1142 44.585 19.5451 44.2814 20.0879L44.7177 20.332ZM45.7618 19.24L46.0167 19.6701C46.3712 19.46 46.7511 19.356 47.1658 19.356V18.856V18.356C46.5724 18.356 46.0163 18.508 45.5068 18.8099L45.7618 19.24ZM47.1658 18.856V19.356C47.6052 19.356 47.9835 19.4481 48.3118 19.6219L48.5458 19.18L48.7797 18.7381C48.292 18.4799 47.7503 18.356 47.1658 18.356V18.856ZM48.5458 19.18L48.3221 19.6272C48.6371 19.7847 48.8931 20.0344 49.089 20.4001L49.5298 20.164L49.9705 19.9279C49.6864 19.3976 49.2864 18.9913 48.7694 18.7328L48.5458 19.18ZM49.5298 20.164L49.0942 20.4095C49.287 20.7515 49.4018 21.227 49.4018 21.868H49.9018H50.4018C50.4018 21.117 50.2685 20.4565 49.9653 19.9185L49.5298 20.164ZM49.9018 21.868H49.4018V22.24H49.9018H50.4018V21.868H49.9018ZM49.9018 22.24V21.74H45.3178V22.24V22.74H49.9018V22.24ZM45.3178 22.24L44.8185 22.2677C44.8552 22.9279 45.0509 23.5118 45.4297 23.9904L45.8217 23.68L46.2138 23.3696C45.9846 23.0802 45.8443 22.7041 45.817 22.2123L45.3178 22.24ZM45.8217 23.68L45.4329 23.9944C45.8504 24.5106 46.4469 24.744 47.1417 24.744V24.244V23.744C46.6846 23.744 46.4011 23.6014 46.2106 23.3656L45.8217 23.68ZM47.1417 24.244V24.744C47.5831 24.744 47.9969 24.64 48.3726 24.4268L48.1258 23.992L47.8789 23.5572C47.6626 23.68 47.4204 23.744 47.1417 23.744V24.244ZM48.1258 23.992L48.3726 24.4268C48.7505 24.2124 49.0477 23.9088 49.2594 23.5258L48.8218 23.284L48.3841 23.0422C48.2598 23.2672 48.093 23.4356 47.8789 23.5572L48.1258 23.992ZM48.8218 23.284L48.6339 23.7474L49.5219 24.1074L49.7098 23.644L49.8976 23.1806L49.0096 22.8206L48.8218 23.284ZM49.7098 23.644L49.2611 23.4232C49.0498 23.8527 48.7759 24.1523 48.4463 24.3482C48.1147 24.5452 47.6953 24.656 47.1658 24.656V25.156V25.656C47.8362 25.656 48.4408 25.5148 48.9572 25.2078C49.4756 24.8997 49.8737 24.4433 50.1584 23.8648L49.7098 23.644ZM47.1417 19.768V19.268C46.5409 19.268 46.012 19.4598 45.6075 19.8752L45.9658 20.224L46.324 20.5728C46.5115 20.3802 46.7666 20.268 47.1417 20.268V19.768ZM45.9658 20.224L45.6074 19.8753C45.2452 20.2476 45.0134 20.7126 44.9005 21.249L45.3898 21.352L45.879 21.455C45.9581 21.0794 46.1103 20.7924 46.3241 20.5727L45.9658 20.224ZM45.3898 21.352V21.852H48.8938V21.352V20.852H45.3898V21.352ZM48.8938 21.352H49.3938C49.3938 21.0237 49.2936 20.7074 49.1248 20.4095L48.6898 20.656L48.2547 20.9025C48.3579 21.0846 48.3938 21.2323 48.3938 21.352H48.8938ZM48.6898 20.656L49.1341 20.4267C48.9628 20.0949 48.7089 19.8245 48.3881 19.614L48.1137 20.032L47.8394 20.45C48.0306 20.5755 48.1607 20.7211 48.2454 20.8853L48.6898 20.656ZM48.1137 20.032L48.397 19.62C48.0382 19.3733 47.6084 19.268 47.1417 19.268V19.768V20.268C47.4591 20.268 47.6773 20.3387 47.8305 20.444L48.1137 20.032ZM51.1298 25H50.6298V25.5H51.1298V25ZM51.1298 19V18.5H50.6298V19H51.1298ZM52.1378 19H52.6378V18.5H52.1378V19ZM52.1378 20.128H51.6378L52.6195 20.2618L52.1378 20.128ZM52.4138 19.612L52.8195 19.9042L52.8195 19.9042L52.4138 19.612ZM55.5818 19.42L55.2282 19.7736L55.232 19.7773L55.5818 19.42ZM56.1578 25V25.5H56.6578V25H56.1578ZM55.1498 25H54.6498V25.5H55.1498V25ZM54.7778 20.104L54.4426 20.4751L54.4494 20.481L54.7778 20.104ZM52.5578 20.332L52.1568 20.0334L52.1568 20.0334L52.5578 20.332ZM52.1378 25V25.5H52.6378V25H52.1378ZM51.1298 25H51.6298V19H51.1298H50.6298V25H51.1298ZM51.1298 19V19.5H52.1378V19V18.5H51.1298V19ZM52.1378 19H51.6378V20.128H52.1378H52.6378V19H52.1378ZM52.1378 20.128L52.6195 20.2618C52.6368 20.1997 52.6906 20.0832 52.8195 19.9042L52.4138 19.612L52.008 19.3198C51.8489 19.5408 51.7188 19.7683 51.656 19.9942L52.1378 20.128ZM52.4138 19.612L52.8195 19.9042C52.9087 19.7804 53.0558 19.6497 53.2883 19.5234L53.0498 19.084L52.8112 18.6446C52.4838 18.8223 52.2069 19.0436 52.008 19.3198L52.4138 19.612ZM53.0498 19.084L53.2883 19.5234C53.4714 19.424 53.7452 19.356 54.1418 19.356V18.856V18.356C53.6424 18.356 53.1882 18.44 52.8112 18.6446L53.0498 19.084ZM54.1418 18.856V19.356C54.6075 19.356 54.9557 19.501 55.2282 19.7736L55.5818 19.42L55.9353 19.0664C55.4559 18.587 54.8441 18.356 54.1418 18.356V18.856ZM55.5818 19.42L55.232 19.7773C55.4907 20.0306 55.6578 20.4312 55.6578 21.064H56.1578H56.6578C56.6578 20.2568 56.4408 19.5614 55.9316 19.0627L55.5818 19.42ZM56.1578 21.064H55.6578V25H56.1578H56.6578V21.064H56.1578ZM56.1578 25V24.5H55.1498V25V25.5H56.1578V25ZM55.1498 25H55.6498V21.208H55.1498H54.6498V25H55.1498ZM55.1498 21.208H55.6498C55.6498 20.6265 55.5132 20.0815 55.1062 19.727L54.7778 20.104L54.4494 20.481C54.5384 20.5585 54.6498 20.7495 54.6498 21.208H55.1498ZM54.7778 20.104L55.1129 19.7329C54.7556 19.4102 54.3039 19.268 53.8058 19.268V19.768V20.268C54.1077 20.268 54.304 20.3498 54.4426 20.4751L54.7778 20.104ZM53.8058 19.768V19.268C53.1275 19.268 52.5486 19.5072 52.1568 20.0334L52.5578 20.332L52.9588 20.6306C53.127 20.4048 53.38 20.268 53.8058 20.268V19.768ZM52.5578 20.332L52.1568 20.0334C51.799 20.5138 51.6378 21.1015 51.6378 21.76H52.1378H52.6378C52.6378 21.2665 52.7566 20.9022 52.9588 20.6306L52.5578 20.332ZM52.1378 21.76H51.6378V25H52.1378H52.6378V21.76H52.1378ZM52.1378 25V24.5H51.1298V25V25.5H52.1378V25ZM58.6619 24.784L58.4022 25.2114L58.4121 25.2171L58.6619 24.784ZM57.7019 23.716L57.2532 23.9366L57.2547 23.9396L57.7019 23.716ZM57.6899 20.32L58.1402 20.5374L58.1416 20.5344L57.6899 20.32ZM58.6259 19.24L58.8894 19.665L58.8955 19.6611L58.6259 19.24ZM60.8219 19.012L60.6387 19.4772L60.647 19.4805L60.6555 19.4835L60.8219 19.012ZM61.5299 19.444L61.1836 19.8048L61.1908 19.8114L61.5299 19.444ZM61.9619 20.152L61.4812 20.2894L62.4619 20.152H61.9619ZM61.9619 16.456V15.956H61.4619V16.456H61.9619ZM62.9699 16.456H63.4699V15.956H62.9699V16.456ZM63.1259 24.004L62.7724 24.3576L62.7795 24.3646L62.7868 24.3714L63.1259 24.004ZM63.7259 24.052H64.2259V23.4323L63.6203 23.5633L63.7259 24.052ZM63.7259 24.868L63.9832 25.2967L64.2259 25.1511V24.868H63.7259ZM63.4619 24.976L63.3406 24.4908L63.3304 24.4936L63.4619 24.976ZM62.3219 24.736L62.6532 24.3615L62.6532 24.3615L62.3219 24.736ZM62.0099 23.824H62.5099L61.5469 23.6354L62.0099 23.824ZM61.6259 24.46L62.0089 24.7817L62.0149 24.7742L61.6259 24.46ZM60.9779 24.952L60.7598 24.5021L60.7543 24.5048L60.9779 24.952ZM61.4699 23.62L61.0708 23.3188L61.0699 23.32L61.4699 23.62ZM61.7339 20.884L61.269 21.0678L61.2716 21.0744L61.2744 21.081L61.7339 20.884ZM61.1219 20.068L60.82 20.4666L60.8257 20.4708L61.1219 20.068ZM59.1419 20.08L59.4439 20.4785L59.4457 20.4772L59.1419 20.08ZM58.5539 20.896L59.0212 21.074L59.0225 21.0704L58.5539 20.896ZM58.5539 23.152L59.0212 22.974L59.0212 22.974L58.5539 23.152ZM59.1299 23.956L58.8221 24.35L58.8289 24.3553L58.8359 24.3604L59.1299 23.956ZM60.0659 25.144V24.644C59.6262 24.644 59.2456 24.5435 58.9118 24.3509L58.6619 24.784L58.4121 25.2171C58.9103 25.5045 59.4657 25.644 60.0659 25.644V25.144ZM58.6619 24.784L58.9216 24.3567C58.601 24.1618 58.3428 23.8798 58.1492 23.4924L57.7019 23.716L57.2547 23.9396C57.525 24.4802 57.9069 24.9102 58.4022 25.2113L58.6619 24.784ZM57.7019 23.716L58.1507 23.4954C57.9604 23.1084 57.8539 22.6161 57.8539 22H57.3539H56.8539C56.8539 22.7279 56.9794 23.3796 57.2532 23.9366L57.7019 23.716ZM57.3539 22H57.8539C57.8539 21.3994 57.9566 20.9177 58.1402 20.5374L57.6899 20.32L57.2397 20.1026C56.9753 20.6503 56.8539 21.2886 56.8539 22H57.3539ZM57.6899 20.32L58.1416 20.5344C58.3291 20.1393 58.5799 19.8568 58.8894 19.665L58.6259 19.24L58.3625 18.815C57.8719 19.1192 57.4987 19.5567 57.2382 20.1056L57.6899 20.32ZM58.6259 19.24L58.8955 19.6611C59.2074 19.4615 59.572 19.356 60.0059 19.356V18.856V18.356C59.3998 18.356 58.8445 18.5065 58.3564 18.8189L58.6259 19.24ZM60.0059 18.856V19.356C60.2224 19.356 60.4322 19.3959 60.6387 19.4772L60.8219 19.012L61.0052 18.5468C60.6836 18.4201 60.3495 18.356 60.0059 18.356V18.856ZM60.8219 19.012L60.6555 19.4835C60.8631 19.5568 61.0371 19.664 61.1837 19.8047L61.5299 19.444L61.8762 19.0833C61.6227 18.84 61.3247 18.6592 60.9883 18.5405L60.8219 19.012ZM61.5299 19.444L61.1908 19.8114C61.3294 19.9393 61.4256 20.0949 61.4812 20.2894L61.9619 20.152L62.4427 20.0146C62.3383 19.6491 62.1465 19.3327 61.8691 19.0766L61.5299 19.444ZM61.9619 20.152H62.4619V16.456H61.9619H61.4619V20.152H61.9619ZM61.9619 16.456V16.956H62.9699V16.456V15.956H61.9619V16.456ZM62.9699 16.456H62.4699V23.488H62.9699H63.4699V16.456H62.9699ZM62.9699 23.488H62.4699C62.4699 23.7807 62.5302 24.1153 62.7724 24.3576L63.1259 24.004L63.4795 23.6504C63.4973 23.6683 63.4949 23.6767 63.4875 23.6523C63.4796 23.6259 63.4699 23.5743 63.4699 23.488H62.9699ZM63.1259 24.004L62.7868 24.3714C62.9493 24.5214 63.148 24.5731 63.3141 24.5864C63.4808 24.5998 63.6575 24.5783 63.8316 24.5407L63.7259 24.052L63.6203 23.5633C63.4983 23.5897 63.427 23.5922 63.3938 23.5896C63.3599 23.5869 63.4066 23.5826 63.4651 23.6366L63.1259 24.004ZM63.7259 24.052H63.2259V24.868H63.7259H64.2259V24.052H63.7259ZM63.7259 24.868L63.4687 24.4393C63.4335 24.4604 63.3917 24.4782 63.3407 24.4909L63.4619 24.976L63.5832 25.4611C63.7242 25.4258 63.8584 25.3716 63.9832 25.2967L63.7259 24.868ZM63.4619 24.976L63.3304 24.4936C63.3042 24.5007 63.2348 24.512 63.1019 24.512V25.012V25.512C63.2731 25.512 63.4436 25.4993 63.5935 25.4584L63.4619 24.976ZM63.1019 25.012V24.512C62.8958 24.512 62.7584 24.4545 62.6532 24.3615L62.3219 24.736L61.9906 25.1105C62.3015 25.3855 62.6841 25.512 63.1019 25.512V25.012ZM62.3219 24.736L62.6532 24.3615C62.5984 24.313 62.5099 24.1803 62.5099 23.824H62.0099H61.5099C61.5099 24.3157 61.6295 24.791 61.9906 25.1105L62.3219 24.736ZM62.0099 23.824L61.5469 23.6354C61.4798 23.8001 61.3787 23.9704 61.237 24.1458L61.6259 24.46L62.0149 24.7742C62.2092 24.5336 62.3641 24.2799 62.473 24.0126L62.0099 23.824ZM61.6259 24.46L61.2431 24.1384C61.1256 24.2782 60.9683 24.401 60.7598 24.5021L60.9779 24.952L61.1961 25.4019C61.5156 25.247 61.7902 25.0418 62.0088 24.7816L61.6259 24.46ZM60.9779 24.952L60.7543 24.5048C60.5819 24.591 60.3578 24.644 60.0659 24.644V25.144V25.644C60.478 25.644 60.862 25.569 61.2015 25.3992L60.9779 24.952ZM60.1139 24.244V24.744C60.8384 24.744 61.4495 24.4806 61.8699 23.92L61.4699 23.62L61.0699 23.32C60.8664 23.5914 60.5735 23.744 60.1139 23.744V24.244ZM61.4699 23.62L61.869 23.9212C62.2686 23.3917 62.4499 22.7387 62.4499 22H61.9499H61.4499C61.4499 22.5733 61.3112 23.0003 61.0708 23.3188L61.4699 23.62ZM61.9499 22H62.4499C62.4499 21.5322 62.3671 21.0921 62.1935 20.687L61.7339 20.884L61.2744 21.081C61.3888 21.3479 61.4499 21.6518 61.4499 22H61.9499ZM61.7339 20.884L62.1989 20.7002C62.0318 20.2774 61.773 19.9261 61.4181 19.6652L61.1219 20.068L60.8257 20.4708C61.0148 20.6099 61.1641 20.8026 61.269 21.0678L61.7339 20.884ZM61.1219 20.068L61.4239 19.6695C61.0596 19.3935 60.6249 19.268 60.1499 19.268V19.768V20.268C60.443 20.268 60.6563 20.3425 60.82 20.4665L61.1219 20.068ZM60.1499 19.768V19.268C59.6593 19.268 59.2115 19.3973 58.8382 19.6828L59.1419 20.08L59.4457 20.4772C59.6163 20.3467 59.8405 20.268 60.1499 20.268V19.768ZM59.1419 20.08L58.84 19.6815C58.4922 19.9449 58.2428 20.2986 58.0853 20.7216L58.5539 20.896L59.0225 21.0704C59.1211 20.8054 59.2636 20.6151 59.4439 20.4785L59.1419 20.08ZM58.5539 20.896L58.0867 20.718C57.9339 21.119 57.8619 21.5566 57.8619 22.024H58.3619H58.8619C58.8619 21.6594 58.918 21.345 59.0212 21.074L58.5539 20.896ZM58.3619 22.024H57.8619C57.8619 22.4914 57.9339 22.929 58.0867 23.33L58.5539 23.152L59.0212 22.974C58.918 22.703 58.8619 22.3886 58.8619 22.024H58.3619ZM58.5539 23.152L58.0867 23.33C58.2436 23.7418 58.4868 24.088 58.8221 24.35L59.1299 23.956L59.4378 23.562C59.2611 23.424 59.1203 23.2342 59.0212 22.974L58.5539 23.152ZM59.1299 23.956L58.8359 24.3604C59.2014 24.6262 59.638 24.744 60.1139 24.744V24.244V23.744C59.8059 23.744 59.5865 23.6698 59.424 23.5516L59.1299 23.956ZM65.6694 24.772L65.3998 25.1932L65.4059 25.197L65.6694 24.772ZM64.7334 23.692L64.2817 23.9064L64.2831 23.9094L64.7334 23.692ZM64.7454 20.284L65.1926 20.5076L65.1926 20.5076L64.7454 20.284ZM65.7054 19.228L65.9589 19.659L65.9614 19.6575L65.7054 19.228ZM68.6574 19.54L68.2744 19.8617L68.282 19.8703L68.6574 19.54ZM69.0414 20.176L68.5705 20.3442L69.5414 20.176H69.0414ZM69.0414 19V18.5H68.5414V19H69.0414ZM70.0014 19H70.5014V18.5H70.0014V19ZM70.0014 25V25.5H70.5014V25H70.0014ZM69.0054 25H68.5054V25.5H69.0054V25ZM69.0054 23.848H69.5054L68.5257 23.7069L69.0054 23.848ZM68.5734 24.556L68.9196 24.9167L68.9199 24.9164L68.5734 24.556ZM67.8654 25L68.0363 25.47L68.0439 25.467L67.8654 25ZM68.1654 23.932L68.4673 24.3306L68.4691 24.3292L68.1654 23.932ZM68.7774 23.116L68.3177 22.919L68.3139 22.9284L68.7774 23.116ZM68.5134 20.38L68.1133 20.68L68.1171 20.6849L68.5134 20.38ZM66.1734 20.056L66.4734 20.456L66.4753 20.4545L66.1734 20.056ZM65.5974 20.848L66.0646 21.026L66.0646 21.026L65.5974 20.848ZM65.5974 23.116L65.1287 23.2904L65.1301 23.294L65.5974 23.116ZM66.1854 23.932L65.8759 24.3247L65.8825 24.3299L65.8892 24.3348L66.1854 23.932ZM67.0494 25.144V24.644C66.6124 24.644 66.2456 24.5409 65.9328 24.347L65.6694 24.772L65.4059 25.197C65.8932 25.4991 66.4464 25.644 67.0494 25.644V25.144ZM65.6694 24.772L65.9389 24.3509C65.6234 24.149 65.371 23.8626 65.1837 23.4746L64.7334 23.692L64.2831 23.9094C64.5438 24.4494 64.9153 24.883 65.3998 25.1931L65.6694 24.772ZM64.7334 23.692L65.1851 23.4776C64.9999 23.0875 64.8974 22.6003 64.8974 22H64.3974H63.8974C63.8974 22.7117 64.0188 23.3525 64.2817 23.9064L64.7334 23.692ZM64.3974 22H64.8974C64.8974 21.3744 65.0044 20.884 65.1926 20.5076L64.7454 20.284L64.2982 20.0604C64.0224 20.612 63.8974 21.2656 63.8974 22H64.3974ZM64.7454 20.284L65.1926 20.5076C65.3857 20.1214 65.6421 19.8453 65.9589 19.659L65.7054 19.228L65.4519 18.797C64.9527 19.0907 64.569 19.5186 64.2982 20.0604L64.7454 20.284ZM65.7054 19.228L65.9614 19.6575C66.2943 19.459 66.6726 19.356 67.1094 19.356V18.856V18.356C66.5061 18.356 65.9485 18.501 65.4493 18.7985L65.7054 19.228ZM67.1094 18.856V19.356C67.4013 19.356 67.6253 19.409 67.7978 19.4952L68.0214 19.048L68.245 18.6008C67.9054 18.431 67.5215 18.356 67.1094 18.356V18.856ZM68.0214 19.048L67.7978 19.4952C67.9986 19.5956 68.1545 19.7187 68.2745 19.8616L68.6574 19.54L69.0402 19.2184C68.8242 18.9613 68.5562 18.7564 68.245 18.6008L68.0214 19.048ZM68.6574 19.54L68.282 19.8703C68.4212 20.0285 68.5142 20.1865 68.5705 20.3442L69.0414 20.176L69.5122 20.0078C69.4086 19.7175 69.2455 19.4515 69.0327 19.2097L68.6574 19.54ZM69.0414 20.176H69.5414V19H69.0414H68.5414V20.176H69.0414ZM69.0414 19V19.5H70.0014V19V18.5H69.0414V19ZM70.0014 19H69.5014V25H70.0014H70.5014V19H70.0014ZM70.0014 25V24.5H69.0054V25V25.5H70.0014V25ZM69.0054 25H69.5054V23.848H69.0054H68.5054V25H69.0054ZM69.0054 23.848L68.5257 23.7069C68.4707 23.8939 68.3733 24.0547 68.2268 24.1956L68.5734 24.556L68.9199 24.9164C69.1895 24.6573 69.3801 24.3461 69.4851 23.9891L69.0054 23.848ZM68.5734 24.556L68.2271 24.1953C68.0777 24.3387 67.8996 24.4516 67.6868 24.533L67.8654 25L68.0439 25.467C68.3752 25.3404 68.669 25.1573 68.9196 24.9167L68.5734 24.556ZM67.8654 25L67.6945 24.5301C67.4851 24.6063 67.2709 24.644 67.0494 24.644V25.144V25.644C67.3878 25.644 67.7177 25.5857 68.0362 25.4699L67.8654 25ZM67.1934 24.232V24.732C67.6683 24.732 68.103 24.6065 68.4673 24.3305L68.1654 23.932L67.8634 23.5335C67.6997 23.6575 67.4864 23.732 67.1934 23.732V24.232ZM68.1654 23.932L68.4691 24.3292C68.8163 24.0636 69.0733 23.7174 69.2408 23.3036L68.7774 23.116L68.3139 22.9284C68.2094 23.1866 68.0584 23.3844 67.8616 23.5348L68.1654 23.932ZM68.7774 23.116L69.2369 23.313C69.4106 22.9079 69.4934 22.4678 69.4934 22H68.9934H68.4934C68.4934 22.3482 68.4322 22.6521 68.3178 22.919L68.7774 23.116ZM68.9934 22H69.4934C69.4934 21.2554 69.313 20.5995 68.9097 20.0751L68.5134 20.38L68.1171 20.6849C68.3537 20.9925 68.4934 21.4166 68.4934 22H68.9934ZM68.5134 20.38L68.9134 20.08C68.4929 19.5194 67.8819 19.256 67.1574 19.256V19.756V20.256C67.6169 20.256 67.9098 20.4086 68.1134 20.68L68.5134 20.38ZM67.1574 19.756V19.256C66.6771 19.256 66.2375 19.3801 65.8714 19.6575L66.1734 20.056L66.4753 20.4545C66.6372 20.3319 66.8537 20.256 67.1574 20.256V19.756ZM66.1734 20.056L65.8734 19.656C65.5327 19.9115 65.2875 20.2569 65.1301 20.67L65.5974 20.848L66.0646 21.026C66.1633 20.7671 66.3021 20.5845 66.4734 20.456L66.1734 20.056ZM65.5974 20.848L65.1301 20.67C64.9774 21.071 64.9054 21.5086 64.9054 21.976H65.4054H65.9054C65.9054 21.6114 65.9614 21.297 66.0646 21.026L65.5974 20.848ZM65.4054 21.976H64.9054C64.9054 22.4437 64.9774 22.8837 65.1288 23.2904L65.5974 23.116L66.066 22.9416C65.9613 22.6603 65.9054 22.3403 65.9054 21.976H65.4054ZM65.5974 23.116L65.1301 23.294C65.288 23.7084 65.5359 24.0568 65.8759 24.3247L66.1854 23.932L66.4948 23.5393C66.3069 23.3912 66.1627 23.1956 66.0646 22.938L65.5974 23.116ZM66.1854 23.932L65.8892 24.3348C66.262 24.609 66.7071 24.732 67.1934 24.732V24.232V23.732C66.8797 23.732 66.6527 23.655 66.4816 23.5292L66.1854 23.932ZM71.6624 25H71.1624V25.5H71.6624V25ZM71.6624 19V18.5H71.1624V19H71.6624ZM72.6704 19H73.1704V18.5H72.6704V19ZM72.6704 20.128H72.1704L73.1522 20.2618L72.6704 20.128ZM72.9464 19.612L73.3522 19.9042L73.3522 19.9042L72.9464 19.612ZM76.1144 19.42L75.7609 19.7736L75.7646 19.7773L76.1144 19.42ZM76.6904 25V25.5H77.1904V25H76.6904ZM75.6824 25H75.1824V25.5H75.6824V25ZM75.3104 20.104L74.9752 20.4751L74.982 20.481L75.3104 20.104ZM73.0904 20.332L72.6894 20.0334L72.6894 20.0334L73.0904 20.332ZM72.6704 25V25.5H73.1704V25H72.6704ZM71.6624 25H72.1624V19H71.6624H71.1624V25H71.6624ZM71.6624 19V19.5H72.6704V19V18.5H71.6624V19ZM72.6704 19H72.1704V20.128H72.6704H73.1704V19H72.6704ZM72.6704 20.128L73.1522 20.2618C73.1695 20.1997 73.2233 20.0832 73.3522 19.9042L72.9464 19.612L72.5407 19.3198C72.3816 19.5408 72.2514 19.7683 72.1887 19.9942L72.6704 20.128ZM72.9464 19.612L73.3522 19.9042C73.4413 19.7804 73.5884 19.6497 73.821 19.5234L73.5824 19.084L73.3439 18.6446C73.0164 18.8223 72.7395 19.0436 72.5407 19.3198L72.9464 19.612ZM73.5824 19.084L73.821 19.5234C74.0041 19.424 74.2778 19.356 74.6744 19.356V18.856V18.356C74.1751 18.356 73.7208 18.44 73.3439 18.6446L73.5824 19.084ZM74.6744 18.856V19.356C75.1402 19.356 75.4883 19.501 75.7609 19.7736L76.1144 19.42L76.468 19.0664C75.9886 18.587 75.3767 18.356 74.6744 18.356V18.856ZM76.1144 19.42L75.7646 19.7773C76.0234 20.0306 76.1904 20.4312 76.1904 21.064H76.6904H77.1904C77.1904 20.2568 76.9735 19.5614 76.4643 19.0627L76.1144 19.42ZM76.6904 21.064H76.1904V25H76.6904H77.1904V21.064H76.6904ZM76.6904 25V24.5H75.6824V25V25.5H76.6904V25ZM75.6824 25H76.1824V21.208H75.6824H75.1824V25H75.6824ZM75.6824 21.208H76.1824C76.1824 20.6265 76.0458 20.0815 75.6388 19.727L75.3104 20.104L74.982 20.481C75.071 20.5585 75.1824 20.7495 75.1824 21.208H75.6824ZM75.3104 20.104L75.6456 19.7329C75.2882 19.4102 74.8365 19.268 74.3384 19.268V19.768V20.268C74.6403 20.268 74.8366 20.3498 74.9753 20.4751L75.3104 20.104ZM74.3384 19.768V19.268C73.6602 19.268 73.0812 19.5072 72.6894 20.0334L73.0904 20.332L73.4915 20.6306C73.6596 20.4048 73.9127 20.268 74.3384 20.268V19.768ZM73.0904 20.332L72.6894 20.0334C72.3316 20.5138 72.1704 21.1015 72.1704 21.76H72.6704H73.1704C73.1704 21.2665 73.2893 20.9022 73.4915 20.6306L73.0904 20.332ZM72.6704 21.76H72.1704V25H72.6704H73.1704V21.76H72.6704ZM72.6704 25V24.5H71.6624V25V25.5H72.6704V25Z" fill="black" mask="url(#path-1-outside-1_93_4)"/>
<path d="M12.625 6.68262C13.667 6.68262 14.5786 6.86219 15.3486 7.23438C16.1087 7.60179 16.7338 8.11165 17.2197 8.7627C17.5322 9.16367 17.7904 9.60403 17.9951 10.083C18.1159 10.1299 18.234 10.18 18.3486 10.2354C19.1079 10.6023 19.733 11.1108 20.2188 11.7607C20.713 12.3944 21.0722 13.127 21.2979 13.9541L21.377 14.2588C21.5481 14.9746 21.6328 15.722 21.6328 16.5C21.6328 17.3894 21.5212 18.2443 21.2979 19.0635V19.0654C21.0722 19.8801 20.7128 20.6101 20.2207 21.2539C19.7343 21.894 19.1087 22.3983 18.3486 22.7656C17.5787 23.1377 16.6678 23.3174 15.626 23.3174C14.584 23.3174 13.6724 23.1378 12.9023 22.7656C12.1431 22.3986 11.5124 21.8959 11.0146 21.2578L11.0098 21.2529V21.252C10.7037 20.8411 10.4503 20.3947 10.248 19.9141C10.13 19.868 10.0145 19.8188 9.90234 19.7646C9.14293 19.3976 8.51151 18.8951 8.01367 18.2568L8.00977 18.252C7.5302 17.6083 7.17847 16.8782 6.95312 16.0645L6.95215 16.0635C6.72875 15.2443 6.61818 14.3894 6.61816 13.5C6.61816 12.611 6.7286 11.7617 6.95215 10.9541C7.1774 10.1282 7.53039 9.39703 8.01172 8.76367V8.7627C8.50946 8.11181 9.14155 7.60209 9.90234 7.23438C10.6723 6.86229 11.5832 6.68264 12.625 6.68262ZM18.6328 13.5C18.6328 14.3894 18.5213 15.2443 18.2979 16.0635V16.0645C18.0721 16.8796 17.7132 17.6108 17.2207 18.2549L17.2197 18.2539C16.7334 18.8937 16.1083 19.3974 15.3486 19.7646C14.7162 20.0703 13.988 20.2438 13.1709 20.2969C13.2971 20.4258 13.4317 20.5452 13.5752 20.6543C14.1276 21.0651 14.8056 21.2773 15.626 21.2773C16.5259 21.2773 17.2236 21.0614 17.7461 20.6562L17.749 20.6543C18.299 20.2362 18.7038 19.6733 18.9619 18.9551L18.9629 18.9531C19.2374 18.2097 19.377 17.3927 19.377 16.5C19.3769 15.5949 19.2376 14.7788 18.9639 14.0488L18.9619 14.0449C18.87 13.7893 18.759 13.5536 18.6299 13.3369C18.6307 13.3911 18.6328 13.4456 18.6328 13.5ZM15.626 11.7236C14.8055 11.7236 14.1267 11.9348 13.5742 12.3457C13.0224 12.7651 12.5975 13.3306 12.3037 14.0518L12.3047 14.0527C12.02 14.7816 11.875 15.5963 11.875 16.5C11.875 17.1168 11.9457 17.6972 12.083 18.2422C12.2564 18.2643 12.4369 18.2764 12.625 18.2764C13.5251 18.2764 14.2235 18.0605 14.7461 17.6553L14.748 17.6543C15.2981 17.2362 15.7038 16.6733 15.9619 15.9551L15.9629 15.9521C16.2373 15.2089 16.376 14.3924 16.376 13.5C16.376 12.8761 16.3075 12.295 16.1768 11.7549C16.0022 11.7353 15.8188 11.7236 15.626 11.7236ZM12.625 8.72266C11.8036 8.72268 11.1251 8.93577 10.5723 9.34766C10.0203 9.76782 9.59624 10.3342 9.30273 11.0566C9.01902 11.7846 8.87402 12.5978 8.87402 13.5C8.87405 14.3891 9.01855 15.2025 9.30273 15.9434L9.41895 16.207C9.48058 16.3362 9.54822 16.459 9.61914 16.5771C9.61896 16.5516 9.61816 16.5256 9.61816 16.5C9.6182 15.6109 9.72949 14.7618 9.95312 13.9541C10.1784 13.1285 10.5305 12.3969 11.0117 11.7637H11.0127C11.5103 11.1129 12.1417 10.6031 12.9023 10.2354C13.5512 9.92175 14.3005 9.74523 15.1436 9.69727C15.0213 9.57045 14.8895 9.45321 14.748 9.3457L14.7461 9.34375C14.2235 8.93848 13.5251 8.72266 12.625 8.72266Z" fill="white" stroke="black" stroke-width="0.6"/>
</svg>
